<svg xmlns="http://www.w3.org/2000/svg" viewBox="0 0 750 500"><g id="freepik--background-complete--inject-104"><path d="M256.75,46.58c.58-4.27-5.45-7.79-10-8.16-2.16-.17-4.41.16-6.46-.56-4.44-1.54-6.21-7.28-10.54-9.11-3.24-1.36-7-.15-10.11,1.43s-6.25,3.57-9.75,3.8c-3.05.19-6.37-.94-9,.55-2,1.11-3,3.4-4.86,4.76s-4.14,1.6-6.36,1.72-4.53.14-6.56,1.07-3.7,3.07-3.28,5.26Z" style="fill:#ebebeb"></path><path d="M693,96.55c.74-5.44-6.94-9.92-12.71-10.39-2.75-.22-5.61.2-8.21-.71-5.65-2-7.91-9.26-13.42-11.59-4.12-1.73-8.86-.19-12.86,1.82s-7.94,4.54-12.4,4.83c-3.89.25-8.1-1.19-11.5.7-2.53,1.42-3.85,4.33-6.19,6.05s-5.26,2-8.09,2.2-5.76.18-8.34,1.36-4.71,3.91-4.18,6.69Z" style="fill:#ebebeb"></path><path d="M151.9,101.75c.74-5.44-6.94-9.92-12.71-10.38-2.75-.22-5.61.2-8.21-.71-5.65-2-7.91-9.27-13.42-11.59-4.12-1.74-8.86-.19-12.86,1.82s-7.94,4.54-12.4,4.82c-3.89.25-8.1-1.19-11.5.71-2.53,1.41-3.85,4.33-6.19,6s-5.26,2-8.09,2.19-5.76.19-8.34,1.37-4.71,3.9-4.18,6.69Z" style="fill:#f5f5f5"></path><path d="M604.7,65.77c.59-4.28-5.44-7.8-10-8.17-2.16-.17-4.41.16-6.46-.55-4.44-1.55-6.21-7.29-10.55-9.11-3.24-1.37-7-.15-10.1,1.43s-6.25,3.56-9.76,3.79c-3.05.19-6.36-.94-9,.55-2,1.11-3,3.41-4.87,4.76s-4.13,1.6-6.36,1.72-4.53.15-6.55,1.08-3.71,3.07-3.29,5.26Z" style="fill:#f5f5f5"></path><path d="M390.32,87.15c.59-4.28-5.44-7.8-10-8.16-2.16-.18-4.41.15-6.46-.56-4.44-1.55-6.21-7.29-10.55-9.11-3.23-1.37-7-.15-10.1,1.43s-6.25,3.57-9.76,3.79c-3.05.2-6.36-.94-9,.55-2,1.12-3,3.41-4.87,4.76s-4.13,1.6-6.36,1.72-4.53.15-6.55,1.08-3.71,3.07-3.29,5.26Z" style="fill:#f5f5f5"></path><polygon points="651.53 469.99 513.45 469.99 507.31 461.95 645.4 461.95 651.53 469.99" style="fill:#e0e0e0"></polygon><polygon points="309.54 465.97 171.45 465.97 165.32 457.93 303.4 457.93 309.54 465.97" style="fill:#e0e0e0"></polygon></g><g id="freepik--Floor--inject-104"><path d="M734.6,433.94c0,.15-160.94.26-359.42.26s-359.45-.11-359.45-.26,160.9-.26,359.45-.26S734.6,433.8,734.6,433.94Z" style="fill:#263238"></path></g><g id="freepik--Plant--inject-104"><path d="M720.28,400.56a6,6,0,0,1,3.09,3.5,10.55,10.55,0,0,1,.41,4.74c-.35,3.08-2.1,6.19-4,8.65-2.59-2.26-3.19-6.21-3.37-8.23-.28-3.19,1.16-9.14,3.85-8.66" style="fill:#47904C"></path><path d="M722.81,422.53a5.1,5.1,0,0,1,1.65-4.84,6.72,6.72,0,0,1,5-1.55,2.84,2.84,0,0,1,2.19,1,2.17,2.17,0,0,1,0,2.2,4.42,4.42,0,0,1-1.63,1.61c-2.25,1.41-4.68,2.36-7.22,1.6" style="fill:#47904C"></path><path d="M719.78,432a4,4,0,0,1,.1-.63c.08-.45.18-1,.31-1.71a17.87,17.87,0,0,1,1.76-5.46,11.05,11.05,0,0,1,3.92-4.17,7.45,7.45,0,0,1,1.6-.7,3.16,3.16,0,0,1,.46-.12c.11,0,.16,0,.17,0a10.92,10.92,0,0,0-2.14,1,11.23,11.23,0,0,0-3.81,4.14,18.91,18.91,0,0,0-1.8,5.38c-.16.72-.29,1.3-.39,1.7A3.14,3.14,0,0,1,719.78,432Z" style="fill:#263238"></path><path d="M719.88,405.18a1.07,1.07,0,0,1,0,.28c0,.2,0,.47.05.79,0,.69.08,1.69.12,2.92.08,2.47.14,5.88.12,9.64s-.1,7.18-.21,9.64c0,1.24-.1,2.23-.14,2.92,0,.33,0,.59-.05.8a1.14,1.14,0,0,1,0,.27s0-.09,0-.28,0-.46,0-.79c0-.72,0-1.71.08-2.92.06-2.47.12-5.87.14-9.64s0-7.17-.06-9.64c0-1.21,0-2.2,0-2.92v-.79A1.23,1.23,0,0,1,719.88,405.18Z" style="fill:#263238"></path><path d="M718.62,424.4a11.92,11.92,0,0,0-6.5-8.72c-.86-.41-2-.68-2.71,0s-.55,1.81-.2,2.7a10.18,10.18,0,0,0,9.35,6.32" style="fill:#47904C"></path><path d="M712.54,418.6a4.7,4.7,0,0,1,.55.24c.18.09.39.19.62.33s.52.29.8.5a11.22,11.22,0,0,1,.9.68,11,11,0,0,1,1,.88,13.22,13.22,0,0,1,1.84,2.35,12.64,12.64,0,0,1,1.2,2.73c.12.44.24.86.31,1.26a10.07,10.07,0,0,1,.15,1.13,7.71,7.71,0,0,1,0,.93,3.85,3.85,0,0,1,0,.7,3.23,3.23,0,0,1-.06.6c-.05,0,0-.86-.12-2.22a8.1,8.1,0,0,0-.18-1.1,10.81,10.81,0,0,0-.32-1.24,13.27,13.27,0,0,0-1.2-2.67,13.72,13.72,0,0,0-1.78-2.33c-.32-.32-.63-.62-.94-.88s-.6-.48-.88-.69C713.3,419,712.52,418.65,712.54,418.6Z" style="fill:#263238"></path></g><g id="freepik--fuel-station--inject-104"><rect x="23.62" y="182.89" width="80.25" height="248.88" style="fill:#e0e0e0"></rect><path d="M46.78,208.16l-2.38,6.69H42.12l-1.26-3.65-1.3,3.65H37.28l-2.38-6.69h2.22l1.37,4,1.42-4h2l1.39,4.08,1.42-4.08Z" style="fill:#263238"></path><path d="M54.11,212.09H49.25a1.39,1.39,0,0,0,.57.8,1.89,1.89,0,0,0,1.07.28,2.29,2.29,0,0,0,.83-.14,2.37,2.37,0,0,0,.71-.44l1.24,1.28A3.61,3.61,0,0,1,50.82,215a4.5,4.5,0,0,1-2.06-.45,3.18,3.18,0,0,1-1.38-1.23,3.51,3.51,0,0,1,0-3.56,3.17,3.17,0,0,1,1.31-1.23,4.17,4.17,0,0,1,3.71,0,3.1,3.1,0,0,1,1.29,1.2,3.56,3.56,0,0,1,.47,1.85S54.14,211.72,54.11,212.09ZM49.67,210a1.45,1.45,0,0,0-.46.84H52a1.4,1.4,0,0,0-.46-.84,1.34,1.34,0,0,0-.91-.31A1.36,1.36,0,0,0,49.67,210Z" style="fill:#263238"></path><path d="M55.24,205.69h2.34v9.16H55.24Z" style="fill:#263238"></path><path d="M60.53,214.51a3.43,3.43,0,0,1-1.36-4.81,3.35,3.35,0,0,1,1.36-1.22,4.44,4.44,0,0,1,2-.44,3.89,3.89,0,0,1,2,.49,2.74,2.74,0,0,1,1.17,1.35l-1.82.93a1.43,1.43,0,0,0-1.33-.9,1.39,1.39,0,0,0-1,.42,1.56,1.56,0,0,0-.42,1.16,1.62,1.62,0,0,0,.42,1.18,1.39,1.39,0,0,0,1,.42,1.43,1.43,0,0,0,1.33-.9l1.82.93a2.66,2.66,0,0,1-1.17,1.35,3.79,3.79,0,0,1-2,.49A4.32,4.32,0,0,1,60.53,214.51Z" style="fill:#263238"></path><path d="M67.89,214.51a3.34,3.34,0,0,1-1.35-1.23,3.5,3.5,0,0,1,0-3.57,3.34,3.34,0,0,1,1.35-1.23,4.52,4.52,0,0,1,3.89,0,3.26,3.26,0,0,1,1.35,1.22,3.58,3.58,0,0,1,0,3.58,3.22,3.22,0,0,1-1.35,1.23,4.12,4.12,0,0,1-2,.45A4.17,4.17,0,0,1,67.89,214.51Zm3-1.84a1.7,1.7,0,0,0,.39-1.18,1.63,1.63,0,0,0-.39-1.16,1.36,1.36,0,0,0-1-.42,1.32,1.32,0,0,0-1,.42,1.63,1.63,0,0,0-.4,1.16,1.7,1.7,0,0,0,.4,1.18,1.32,1.32,0,0,0,1,.42A1.36,1.36,0,0,0,70.85,212.67Z" style="fill:#263238"></path><path d="M85.38,208.78a3.07,3.07,0,0,1,.74,2.24v3.83H83.77V211.4a1.67,1.67,0,0,0-.26-1,.9.9,0,0,0-.75-.34,1.09,1.09,0,0,0-.85.37,1.66,1.66,0,0,0-.32,1.13v3.32H79.24V211.4c0-.91-.34-1.37-1-1.37a1.13,1.13,0,0,0-.87.37,1.71,1.71,0,0,0-.32,1.13v3.32H74.7v-6.69h2.23v.7a2.29,2.29,0,0,1,.89-.61,2.89,2.89,0,0,1,1.11-.21,3,3,0,0,1,1.26.26,2.21,2.21,0,0,1,.9.79,2.72,2.72,0,0,1,1-.77,3.11,3.11,0,0,1,1.33-.28A2.65,2.65,0,0,1,85.38,208.78Z" style="fill:#263238"></path><path d="M94.5,212.09H89.64a1.39,1.39,0,0,0,.57.8,1.89,1.89,0,0,0,1.07.28,2.29,2.29,0,0,0,.83-.14,2.37,2.37,0,0,0,.71-.44l1.24,1.28A3.61,3.61,0,0,1,91.21,215a4.54,4.54,0,0,1-2.07-.45,3.21,3.21,0,0,1-1.37-1.23,3.51,3.51,0,0,1,0-3.56,3.17,3.17,0,0,1,1.31-1.23A3.94,3.94,0,0,1,91,208a3.86,3.86,0,0,1,1.81.42,3.07,3.07,0,0,1,1.3,1.2,3.56,3.56,0,0,1,.47,1.85S94.53,211.72,94.5,212.09ZM90.06,210a1.45,1.45,0,0,0-.46.84h2.74a1.4,1.4,0,0,0-.46-.84,1.34,1.34,0,0,0-.91-.31A1.36,1.36,0,0,0,90.06,210Z" style="fill:#263238"></path><path d="M39.23,431.87V230.58H82.52s29.66-1.91,29.66,28.06V431.87Z" style="fill:#455a64"></path><path d="M112.21,431.89h-73V230.55H82.52a34.74,34.74,0,0,1,7.66.61,33.38,33.38,0,0,1,7.12,2.16,25.28,25.28,0,0,1,7.14,4.64c5.15,4.84,7.77,11.79,7.77,20.68Zm-73-.05h72.91V258.64c0-8.87-2.61-15.82-7.76-20.64a24.94,24.94,0,0,0-7.12-4.63,32.73,32.73,0,0,0-7.11-2.16,34.66,34.66,0,0,0-7.65-.61H39.25Z" style="fill:#263238"></path><circle cx="63.74" cy="167.67" r="30.53" style="fill:#47904C"></circle><path d="M94.27,167.67a4.45,4.45,0,0,1,0-.49c0-.35-.06-.83-.1-1.45,0-.32,0-.67-.07-1.07s-.12-.81-.19-1.27a23.17,23.17,0,0,0-.64-3.15,29.21,29.21,0,0,0-3.39-8.08,30.53,30.53,0,0,0-7.73-8.61,30.13,30.13,0,0,0-12.76-5.65,26.86,26.86,0,0,0-3.84-.44c-.65,0-1.31-.09-2-.08l-2,.11c-.33,0-.67,0-1,.06l-1,.16c-.67.11-1.36.19-2,.33a32,32,0,0,0-4,1.19A31,31,0,0,0,49.48,141c-.64.35-1.26.75-1.89,1.13a15.23,15.23,0,0,0-1.83,1.26,33.54,33.54,0,0,0-3.43,2.92,34.62,34.62,0,0,0-3,3.51A29.24,29.24,0,0,0,35,158.12a32.43,32.43,0,0,0-1.57,9.55A32.81,32.81,0,0,0,35,177.22a29.45,29.45,0,0,0,4.33,8.35,35.75,35.75,0,0,0,3,3.51A35.06,35.06,0,0,0,45.76,192a15.23,15.23,0,0,0,1.83,1.26c.63.37,1.25.78,1.88,1.12a31.86,31.86,0,0,0,4,1.74,33.72,33.72,0,0,0,4,1.19c.68.14,1.37.22,2,.33l1,.16c.34,0,.68,0,1,.06l2,.11c.66,0,1.32-.06,2-.08a28.41,28.41,0,0,0,3.83-.44,30.53,30.53,0,0,0,20.49-14.26,29.14,29.14,0,0,0,3.39-8.09,23.05,23.05,0,0,0,.64-3.14c.07-.46.15-.89.19-1.28s0-.74.07-1.06c0-.62.07-1.1.1-1.45a4.93,4.93,0,0,1,0-.5s0,.17,0,.5l0,1.45c0,.32,0,.68,0,1.07s-.11.82-.17,1.29a21.64,21.64,0,0,1-.6,3.17,28.89,28.89,0,0,1-3.33,8.19,30.63,30.63,0,0,1-20.66,14.53,27.56,27.56,0,0,1-3.89.46c-.66,0-1.33.1-2,.09l-2-.1c-.34,0-.69,0-1-.07l-1-.15c-.69-.11-1.38-.19-2.07-.33a33.73,33.73,0,0,1-8.13-3c-.65-.35-1.27-.76-1.92-1.14a16.39,16.39,0,0,1-1.85-1.27,33.74,33.74,0,0,1-3.5-3,33.38,33.38,0,0,1-3-3.56,29.75,29.75,0,0,1-4.41-8.48,30.47,30.47,0,0,1,0-19.43A29.87,29.87,0,0,1,39,149.48a35.81,35.81,0,0,1,3-3.57,34.91,34.91,0,0,1,3.5-3,15.73,15.73,0,0,1,1.86-1.28c.64-.38,1.26-.79,1.91-1.14a32.18,32.18,0,0,1,4-1.75,32.54,32.54,0,0,1,4.11-1.2c.68-.14,1.38-.22,2.07-.33l1-.16c.34,0,.69,0,1-.06l2-.1c.67,0,1.34.06,2,.08a29.11,29.11,0,0,1,3.89.46A30.74,30.74,0,0,1,90.08,152a29,29,0,0,1,3.33,8.18,21.75,21.75,0,0,1,.6,3.18c.06.46.14.89.17,1.28s0,.75,0,1.07l0,1.46C94.28,167.51,94.27,167.67,94.27,167.67Z" style="fill:#263238"></path><path d="M56.47,153.64H70.85l.13,0a2.58,2.58,0,0,1,1.53.89,2.78,2.78,0,0,1,.61,1.88c0,5.22,0,10.43,0,15.64v.38h1.14v-.39q0-4.5,0-9a1.45,1.45,0,0,1,.21-.8c.75-1,1.53-2,2.31-3a.84.84,0,0,1,1.22-.15.85.85,0,0,1,.12,1.2c-.17.25-.36.49-.56.73a.81.81,0,0,0-.19.54c0,1,0,2.08,0,3.12a.87.87,0,0,1-.9.94H76v7.56c0,.7-.32,1-1,1-.52,0-1,0-1.57,0-.22,0-.28.06-.28.28,0,1,0,2.06,0,3.09a2.15,2.15,0,0,0,0,.23h.65c.73,0,1,.32,1,1.05,0,1,0,2,0,3,0,.81-.29,1.1-1.1,1.1H53.66c-.79,0-1-.12-1.19-.86v-3.44c.23-.73.4-.86,1.19-.86h.55v-7.25c0-4.7,0-9.4,0-14.11a2.57,2.57,0,0,1,1-2.28A6.53,6.53,0,0,1,56.47,153.64Z" style="fill:#fff"></path><g id="freepik--NCkLls.tif--inject-104"><path d="M63.67,165h-5a.88.88,0,0,1-1-1V158.1c0-.71.32-1,1-1h10c.71,0,1,.32,1,1V164c0,.73-.32,1-1.05,1Z" style="fill:#47904C"></path><path d="M59.62,168.53H58.54a.84.84,0,0,1-.88-.85.85.85,0,0,1,.87-.86h2.2a.86.86,0,1,1,0,1.71Z" style="fill:#47904C"></path></g><path d="M73.5,177.67a93,93,0,0,1-9.76.26,93,93,0,0,1-9.76-.26,89.83,89.83,0,0,1,9.76-.26A89.83,89.83,0,0,1,73.5,177.67Z" style="fill:#47904C"></path><path d="M64.3,250.09h2.16v3.59a5.69,5.69,0,0,1-1.7.81,6.73,6.73,0,0,1-1.93.28,5.17,5.17,0,0,1-2.44-.57,4.23,4.23,0,0,1-1.7-1.6,4.65,4.65,0,0,1,0-4.64,4.19,4.19,0,0,1,1.71-1.6,5.31,5.31,0,0,1,2.48-.58,5.61,5.61,0,0,1,2.18.41,4.1,4.1,0,0,1,1.6,1.18l-1.55,1.4a2.76,2.76,0,0,0-2.1-1,2.42,2.42,0,0,0-1.79.67,2.4,2.4,0,0,0-.68,1.8,2.58,2.58,0,0,0,.31,1.28,2.18,2.18,0,0,0,.86.87,2.55,2.55,0,0,0,1.27.32,3.25,3.25,0,0,0,1.32-.28Z" style="fill:#fff"></path><path d="M73.81,252.92H70.16l-.68,1.68H67L70.8,246h2.41L77,254.6H74.49Zm-.71-1.8L72,248.35l-1.11,2.77Z" style="fill:#fff"></path><path d="M78.73,254.51a4.91,4.91,0,0,1-1.61-.69l.8-1.8a5.24,5.24,0,0,0,1.35.62,5.32,5.32,0,0,0,1.51.23c.93,0,1.4-.23,1.4-.7a.58.58,0,0,0-.4-.55,7.25,7.25,0,0,0-1.29-.38,12.6,12.6,0,0,1-1.63-.45,2.72,2.72,0,0,1-1.12-.77,2,2,0,0,1-.47-1.43,2.48,2.48,0,0,1,.43-1.43,2.88,2.88,0,0,1,1.29-1,5.24,5.24,0,0,1,2.11-.38,7.42,7.42,0,0,1,1.68.2,4.82,4.82,0,0,1,1.45.56l-.75,1.81a5.06,5.06,0,0,0-2.4-.66,2.06,2.06,0,0,0-1.06.21.65.65,0,0,0-.33.56.55.55,0,0,0,.39.52,6.61,6.61,0,0,0,1.28.36,12.16,12.16,0,0,1,1.63.45,2.89,2.89,0,0,1,1.13.77,2.06,2.06,0,0,1,.47,1.42,2.42,2.42,0,0,1-.43,1.41,2.94,2.94,0,0,1-1.3,1,5.23,5.23,0,0,1-2.1.37A7.59,7.59,0,0,1,78.73,254.51Z" style="fill:#fff"></path><path d="M79.36,271.25c0,.15-6.23.26-13.92.26s-13.92-.11-13.92-.26,6.23-.26,13.92-.26S79.36,271.11,79.36,271.25Z" style="fill:#fff"></path><path d="M99.18,271.19a29,29,0,0,1-5.44.26,29.08,29.08,0,0,1-5.44-.26,29.08,29.08,0,0,1,5.44-.26A29,29,0,0,1,99.18,271.19Z" style="fill:#fff"></path><path d="M79.36,281.21c0,.15-6.23.26-13.92.26s-13.92-.11-13.92-.26,6.23-.26,13.92-.26S79.36,281.07,79.36,281.21Z" style="fill:#fff"></path><path d="M99.18,281.15a29,29,0,0,1-5.44.26,29.08,29.08,0,0,1-5.44-.26,29.08,29.08,0,0,1,5.44-.26A29,29,0,0,1,99.18,281.15Z" style="fill:#fff"></path><path d="M79.36,291.17c0,.15-6.23.26-13.92.26s-13.92-.11-13.92-.26,6.23-.26,13.92-.26S79.36,291,79.36,291.17Z" style="fill:#fff"></path><path d="M99.18,291.11a29,29,0,0,1-5.44.26,29.08,29.08,0,0,1-5.44-.26,28.1,28.1,0,0,1,5.44-.26A28,28,0,0,1,99.18,291.11Z" style="fill:#fff"></path><path d="M79.36,301.13c0,.14-6.23.26-13.92.26s-13.92-.12-13.92-.26,6.23-.26,13.92-.26S79.36,301,79.36,301.13Z" style="fill:#fff"></path><path d="M99.18,301.07a29,29,0,0,1-5.44.26,29.08,29.08,0,0,1-5.44-.26,28.1,28.1,0,0,1,5.44-.26A28,28,0,0,1,99.18,301.07Z" style="fill:#fff"></path><path d="M79.36,311.09c0,.14-6.23.26-13.92.26s-13.92-.12-13.92-.26,6.23-.26,13.92-.26S79.36,311,79.36,311.09Z" style="fill:#fff"></path><path d="M99.18,311a29,29,0,0,1-5.44.26A29.08,29.08,0,0,1,88.3,311a28.1,28.1,0,0,1,5.44-.26A28,28,0,0,1,99.18,311Z" style="fill:#fff"></path><path d="M79.36,321.05c0,.14-6.23.26-13.92.26s-13.92-.12-13.92-.26,6.23-.26,13.92-.26S79.36,320.91,79.36,321.05Z" style="fill:#fff"></path><path d="M99.18,321a29,29,0,0,1-5.44.26A29.08,29.08,0,0,1,88.3,321a28.1,28.1,0,0,1,5.44-.26A28,28,0,0,1,99.18,321Z" style="fill:#fff"></path><path d="M79.36,331c0,.14-6.23.26-13.92.26s-13.92-.12-13.92-.26,6.23-.26,13.92-.26S79.36,330.86,79.36,331Z" style="fill:#fff"></path><path d="M99.18,330.94a27.51,27.51,0,0,1-5.44.27,27.59,27.59,0,0,1-5.44-.27,29.08,29.08,0,0,1,5.44-.26A29,29,0,0,1,99.18,330.94Z" style="fill:#fff"></path><path d="M79.36,341c0,.14-6.23.26-13.92.26s-13.92-.12-13.92-.26,6.23-.26,13.92-.26S79.36,340.82,79.36,341Z" style="fill:#fff"></path><path d="M99.18,340.9a28,28,0,0,1-5.44.26,28.1,28.1,0,0,1-5.44-.26,29.08,29.08,0,0,1,5.44-.26A29,29,0,0,1,99.18,340.9Z" style="fill:#fff"></path><path d="M79.36,350.93c0,.14-6.23.26-13.92.26s-13.92-.12-13.92-.26,6.23-.26,13.92-.26S79.36,350.78,79.36,350.93Z" style="fill:#fff"></path><path d="M99.18,350.86a28,28,0,0,1-5.44.26,28.1,28.1,0,0,1-5.44-.26,29.08,29.08,0,0,1,5.44-.26A29,29,0,0,1,99.18,350.86Z" style="fill:#fff"></path><path d="M79.36,360.89c0,.14-6.23.26-13.92.26s-13.92-.12-13.92-.26,6.23-.26,13.92-.26S79.36,360.74,79.36,360.89Z" style="fill:#fff"></path><path d="M99.18,360.82a28,28,0,0,1-5.44.26,28.1,28.1,0,0,1-5.44-.26,29.08,29.08,0,0,1,5.44-.26A29,29,0,0,1,99.18,360.82Z" style="fill:#fff"></path><path d="M79.36,370.85c0,.14-6.23.26-13.92.26s-13.92-.12-13.92-.26,6.23-.27,13.92-.27S79.36,370.7,79.36,370.85Z" style="fill:#fff"></path><path d="M99.18,370.78a28,28,0,0,1-5.44.26,28.1,28.1,0,0,1-5.44-.26,29.08,29.08,0,0,1,5.44-.26A29,29,0,0,1,99.18,370.78Z" style="fill:#fff"></path><path d="M79.36,380.8c0,.15-6.23.26-13.92.26s-13.92-.11-13.92-.26,6.23-.26,13.92-.26S79.36,380.66,79.36,380.8Z" style="fill:#fff"></path><path d="M99.18,380.74a29,29,0,0,1-5.44.26,29.08,29.08,0,0,1-5.44-.26,29.08,29.08,0,0,1,5.44-.26A29,29,0,0,1,99.18,380.74Z" style="fill:#fff"></path><rect x="143.21" y="279.58" width="556.72" height="138.64" style="fill:#f5f5f5"></rect><polygon points="672.29 414.07 672.29 328.05 699.85 328.05 699.85 415.4 672.29 414.07" style="fill:#e0e0e0"></polygon><path d="M495.39,348a107.41,107.41,0,0,1-.55-15.73c.27-4.17,1-8.37.35-12.49s-3.18-8.31-7.21-9.41c-5.58-1.52-10.89,3.39-13.59,8.51-2,3.75-3.31,8.13-2.27,12.24.8,3.16,2.92,5.88,3.52,9.08a19.87,19.87,0,0,1-.41,7.07q-1.05,5.88-2.11,11.74c-.53,3-1.09,6-2.64,8.63-2.45,4.13-7,6.5-10.62,9.62s-7.94,29.77-6,34.18l48.74-1.83C501.09,392,496.87,365.59,495.39,348Z" style="fill:#e0e0e0"></path><path d="M331,413.13a21.35,21.35,0,0,1,4.74-18.8c2.36-2.65,5.48-4.82,6.75-8.14,2.21-5.77-2.09-12.39-.33-18.32,1.19-4,4.88-6.78,6.65-10.57,2.44-5.21.88-11.29.44-17s1.21-12.74,6.69-14.5c5.88-1.89,11.73,4,12.93,10s-.51,12.27-.61,18.44,1.44,12.48.67,18.66c-.6,4.81-2.57,9.42-2.63,14.25-.09,8.73,5.89,18.14,1.25,25.53" style="fill:#e0e0e0"></path><polygon points="568.05 366.46 682.8 281.33 699.85 281.33 699.85 299.14 567.84 390.77 568.05 366.46" style="fill:#fff"></polygon><polygon points="159.07 366.46 273.83 281.33 290.88 281.33 305.93 281.33 158.87 390.77 159.07 366.46" style="fill:#fff"></polygon><rect x="143.98" y="225.47" width="556.72" height="54.98" style="fill:#455a64"></rect><rect x="139.44" y="412.76" width="562.31" height="20.98" style="fill:#455a64"></rect><rect x="73.42" y="384.85" width="203.73" height="27.54" transform="translate(355.63 794.99) rotate(179.27)" style="fill:#455a64"></rect><g style="opacity:0.4"><rect x="73.42" y="384.85" width="203.73" height="27.54" transform="translate(355.63 794.99) rotate(179.27)"></rect></g><path d="M64.65,383.94A16.89,16.89,0,0,1,78.4,372.8l45.66-6,16.54-12.13a68.47,68.47,0,0,1,39.61-13.24l89.33-1.13h0l19.13-.25a2,2,0,0,1,1.46.6,1.87,1.87,0,0,1-.61,3l-7.78,3.45a13.72,13.72,0,0,1,.8,1.52l4.55,10.19a20,20,0,0,1,1.74,7.89,4.46,4.46,0,0,1,4.53,4.41l.22,17.84,4.67,2A6.2,6.2,0,0,1,302,396.6l.06,4.62a7.55,7.55,0,0,1-6,7.49l-24.47,5.22,0-2.22a23.69,23.69,0,0,0-24-23.38h0a23.68,23.68,0,0,0-23.38,24l0,2.21-98.58,1.26,0-2.22a23.69,23.69,0,0,0-24-23.39h0a23.69,23.69,0,0,0-23.38,24l0,2.22-12.1.15a5.93,5.93,0,0,1-6-5.84l-.06-5.23a46.63,46.63,0,0,1,2.65-16.13Z" style="fill:#263238"></path><path d="M282.54,348.65l4.55,10.19a20,20,0,0,1,1.74,7.89l-6.11.07-6.18-17.37,5.2-2.3A13.72,13.72,0,0,1,282.54,348.65Z" style="fill:#455a64"></path><path d="M293,383l-3.36,0a9.38,9.38,0,0,1-5.4-1.61l-5.64-3.81a3.64,3.64,0,0,1-1.61-3h0a3.66,3.66,0,0,1,3.61-3.71l12.23-.15a.53.53,0,0,1,.54.53l.16,11.15A.54.54,0,0,1,293,383Z" style="fill:#ebebeb"></path><circle cx="247.35" cy="413" r="20.64" transform="matrix(0.03, -1, 1, 0.03, -172.21, 649.06)" style="fill:#263238"></circle><path d="M268,412.39a.09.09,0,0,1,0,.05,20.65,20.65,0,1,1-41.28,1.12s0,0,0-.05Z" style="fill:#263238"></path><path d="M261.84,412.61A14.5,14.5,0,1,1,247,398.51,14.49,14.49,0,0,1,261.84,412.61Z" style="fill:#fafafa"></path><path d="M247,398.51a14.51,14.51,0,0,1,14.88,14.1l-29,.79A14.51,14.51,0,0,1,247,398.51Z" style="fill:#e0e0e0"></path><path d="M256.18,412.76a8.83,8.83,0,1,1-9.07-8.58A8.83,8.83,0,0,1,256.18,412.76Z" style="fill:#263238"></path><circle cx="101.83" cy="414.85" r="20.64" transform="matrix(0.01, -1, 1, 0.01, -313.81, 513.4)" style="fill:#263238"></circle><path d="M122.46,414.24a.09.09,0,0,1,0,.05,20.64,20.64,0,1,1-41.27,1.12s0,0,0-.05Z" style="fill:#263238"></path><path d="M116.32,414.46a14.5,14.5,0,1,1-14.88-14.1A14.49,14.49,0,0,1,116.32,414.46Z" style="fill:#fafafa"></path><path d="M101.44,400.36a14.51,14.51,0,0,1,14.88,14.1l-29,.78A14.51,14.51,0,0,1,101.44,400.36Z" style="fill:#e0e0e0"></path><path d="M110.66,414.61a8.83,8.83,0,1,1-9.07-8.58A8.83,8.83,0,0,1,110.66,414.61Z" style="fill:#263238"></path><path d="M124.06,366.84l16.54-12.13a68.57,68.57,0,0,1,15.46-8.5l5.5-.07-33.11,22.62Z" style="fill:#455a64"></path><path d="M75,379.62l-8.12.1A19.82,19.82,0,0,1,71,375.57C72.81,375,75.11,377.25,75,379.62Z" style="fill:#fafafa"></path><path d="M240.2,368l-107.39,1.36L163.2,347.8a13.13,13.13,0,0,1,7.72-2.64l66.57-.84s23.91-.89,29.25,6.25Z" style="fill:#263238"></path><path d="M239.28,368,235,345.68l12.5-.16a40.44,40.44,0,0,1,14.07,2.5l3.8,1.62a3.59,3.59,0,0,1,1.54,5.56l-4.32,5.5a18.82,18.82,0,0,1-13.46,7.18c-.39,0-.78.05-1.17.05Zm-49.52.63-.29-22.41,36.79-.47,4.28,22.36Zm-52.6.67,27.32-21a9,9,0,0,1,5.39-1.87l12.72-.16-4,22.46Z" style="fill:#455a64"></path><path d="M183.49,409.53v-.42c0-.28,0-.68,0-1.19,0-1.06,0-2.56-.09-4.4-.09-3.73-.21-8.86-.35-14.52-.08-2.84-.15-5.54-.22-8,0-1.23-.07-2.39-.1-3.49a18.62,18.62,0,0,1,.06-3,21.28,21.28,0,0,1,.95-4.28c.16-.5.3-.87.4-1.13l.11-.29a.55.55,0,0,0,0-.1s0,0-.06.09l-.13.29c-.11.25-.26.62-.43,1.11a20.14,20.14,0,0,0-1,4.29,18.85,18.85,0,0,0-.09,3c0,1.09.06,2.26.09,3.49.06,2.45.13,5.15.2,8,.16,5.66.31,10.79.41,14.52.06,1.85.11,3.35.15,4.4,0,.51,0,.91.05,1.19,0,.13,0,.24,0,.32S183.48,409.53,183.49,409.53Z" style="fill:#455a64"></path><path d="M136.38,370.91l-.08.06-.24.19-.17.14-.18.2a5,5,0,0,0-.43.52,14,14,0,0,0-1.82,3.88c-.27.86-.53,1.82-.76,2.86-.12.52-.22,1.06-.31,1.62a7.74,7.74,0,0,0-.11,1.75c0,2.39.14,5,.24,7.77.22,5.51.45,10.5.62,14.1.1,1.8.17,3.25.22,4.28,0,.49.06.88.08,1.16l0,.3a.36.36,0,0,0,0,.1s0,0,0-.1v-.3q0-.42,0-1.17c0-1-.1-2.48-.16-4.27-.15-3.62-.35-8.6-.57-14.11-.1-2.75-.21-5.38-.26-7.76a8.22,8.22,0,0,1,.1-1.73c.09-.55.19-1.09.3-1.61.22-1,.47-2,.74-2.85a14.09,14.09,0,0,1,1.75-3.87A7.79,7.79,0,0,1,136.38,370.91Z" style="fill:#263238"></path><path d="M132.83,370.23h0a3.69,3.69,0,0,1,1.84-3.24l4.8-2.78A9.25,9.25,0,0,1,144,363h0a9.34,9.34,0,0,1,2.88.42,5.25,5.25,0,0,1,3.58,4.77h0a5.32,5.32,0,0,1-5.25,5.6l-8.62.11A3.7,3.7,0,0,1,132.83,370.23Z" style="fill:#263238"></path><path d="M132.83,370.23s0,.16.06.46a3.87,3.87,0,0,0,.44,1.26,3.73,3.73,0,0,0,1.5,1.44,3.58,3.58,0,0,0,1.25.38,14.66,14.66,0,0,0,1.49,0l7.37-.12a5.79,5.79,0,0,0,2.05-.36,5.31,5.31,0,0,0,3-3.07,5.3,5.3,0,0,0-1.93-6.12,5.56,5.56,0,0,0-2-.81,8.85,8.85,0,0,0-2.09-.22,9.24,9.24,0,0,0-3.78.85c-.55.26-1.06.58-1.56.86l-1.43.82-2.46,1.4a3.67,3.67,0,0,0-1.46,1.48,3.86,3.86,0,0,0-.41,1.27c0,.3,0,.47,0,.47a3,3,0,0,1,0-.48,3.63,3.63,0,0,1,.38-1.3,3.77,3.77,0,0,1,1.48-1.54l2.44-1.44,1.43-.83c.49-.28,1-.61,1.56-.87a9.25,9.25,0,0,1,6-.68,5.71,5.71,0,0,1,2.09.84,5.43,5.43,0,0,1,2.32,4,5.65,5.65,0,0,1-.3,2.39,5.38,5.38,0,0,1-1.26,2,5.66,5.66,0,0,1-1.89,1.23,6.07,6.07,0,0,1-2.12.37l-7.38.07a15,15,0,0,1-1.51,0,3.83,3.83,0,0,1-1.29-.41,3.75,3.75,0,0,1-1.51-1.51,3.45,3.45,0,0,1-.41-1.29A3.32,3.32,0,0,1,132.83,370.23Z" style="fill:#455a64"></path><path d="M146.12,365s-.13-.17-.42-.4a2.9,2.9,0,0,0-1.44-.55,6.25,6.25,0,0,0-2.29.27,18.74,18.74,0,0,0-2.7,1,18.12,18.12,0,0,0-4.39,2.8c-1,.88-1.54,1.52-1.58,1.49a3.6,3.6,0,0,1,.36-.46,12.64,12.64,0,0,1,1.12-1.14,16.17,16.17,0,0,1,4.39-2.89,17.42,17.42,0,0,1,2.75-1,6.26,6.26,0,0,1,2.36-.23,2.76,2.76,0,0,1,1.47.65,1.83,1.83,0,0,1,.29.32A.87.87,0,0,1,146.12,365Z" style="fill:#fff"></path><path d="M217.29,414s0-.09,0-.26,0-.42-.05-.74-.06-.74-.07-1.22,0-1,0-1.65.1-1.31.15-2.07c0-.38.11-.77.17-1.17s.11-.83.21-1.27a31.49,31.49,0,0,1,1.77-5.73,31.09,31.09,0,0,1,3.64-6.29,29.77,29.77,0,0,1,5.87-5.9,28.14,28.14,0,0,1,8.15-4.24,32.79,32.79,0,0,1,9.74-1.59,33.74,33.74,0,0,1,9.77,1.41,30.37,30.37,0,0,1,8.31,3.95,33.8,33.8,0,0,1,6.28,5.48,36.4,36.4,0,0,1,4.27,5.88,41.16,41.16,0,0,1,2.57,5.43c.16.41.28.82.42,1.21s.27.76.36,1.13c.2.73.4,1.4.54,2l.34,1.62c.09.48.14.88.2,1.2s.09.57.11.74,0,.25,0,.25l0-.25-.1-.74c0-.33-.09-.73-.17-1.21s-.21-1-.33-1.62-.33-1.28-.52-2c-.1-.36-.24-.74-.36-1.13s-.26-.8-.42-1.21a39.25,39.25,0,0,0-2.54-5.47,37.16,37.16,0,0,0-4.28-5.92,33.75,33.75,0,0,0-6.29-5.52,30.51,30.51,0,0,0-8.35-4,33.87,33.87,0,0,0-9.83-1.43,32.56,32.56,0,0,0-9.8,1.61,28,28,0,0,0-8.19,4.28,29.33,29.33,0,0,0-5.9,5.94,31,31,0,0,0-3.63,6.33,31.64,31.64,0,0,0-1.76,5.76c-.09.44-.13.87-.2,1.27s-.13.8-.16,1.18c0,.76-.12,1.45-.13,2.08v1.66c0,.48.07.88.1,1.21s.05.57.06.74Z" style="fill:#455a64"></path><path d="M238,383.1a.5.5,0,0,0,.11-.15l.26-.42c.22-.38.54-.93.91-1.61a25,25,0,0,0,1.2-2.47,3.66,3.66,0,0,0,.25-.77,1.09,1.09,0,0,0,0-.44c0-.14-.08-.27-.13-.4-.18-.54-.39-1.08-.62-1.63-.92-2.2-1.83-4.15-2.49-5.56l-.8-1.66c-.1-.18-.17-.33-.23-.45l-.09-.15s0,.06,0,.17l.2.46.75,1.69c.63,1.42,1.52,3.38,2.44,5.57.22.55.44,1.09.62,1.61a1.66,1.66,0,0,1,.15.76,4,4,0,0,1-.23.74c-.38.95-.81,1.77-1.16,2.47l-.85,1.63-.24.44A1.1,1.1,0,0,0,238,383.1Z" style="fill:#455a64"></path><path d="M268,389.63c0,.05,5.78,0,12.91-.13s12.9-.26,12.9-.31-5.78,0-12.91.12S268,389.58,268,389.63Z" style="fill:#263238"></path><path d="M133.47,409.84c0,.06,18.75-.14,41.87-.44s41.86-.57,41.86-.62-18.74.14-41.87.44S133.47,409.79,133.47,409.84Z" style="fill:#455a64"></path><path d="M60.18,411c0,.05,2.87.06,6.41,0s6.41-.12,6.41-.17-2.87-.06-6.41,0S60.17,411,60.18,411Z" style="fill:#263238"></path><path d="M75.6,377h.14l.4,0,1.54-.14c1.34-.13,3.28-.33,5.67-.6,4.78-.54,11.38-1.37,18.64-2.48s13.81-2.29,18.54-3.2c2.36-.46,4.27-.85,5.58-1.13l1.52-.32L128,369l.13,0H128l-.4.07-1.52.29-5.6,1.07c-4.73.88-11.28,2-18.54,3.14s-13.85,2-18.62,2.54l-5.67.65-1.54.18-.39.05Z" style="fill:#455a64"></path><path d="M168.93,378l-.29,0a2.14,2.14,0,0,1-.77-.29,2,2,0,0,1-.79-1,2.07,2.07,0,0,1-.11-.8,1.84,1.84,0,0,1,.22-.87,1.92,1.92,0,0,1,1.66-1l2.46,0,5.63-.06a1.88,1.88,0,0,1,1.29.48,1.94,1.94,0,0,1,.63,1.19,2.19,2.19,0,0,1-.22,1.29,2,2,0,0,1-.92.84,3.09,3.09,0,0,1-1.21.16l-1.2,0-2.14,0-3.1.07-.84,0-.3,0a1.71,1.71,0,0,0,.3,0h7.28c.21,0,.41,0,.63,0a1.86,1.86,0,0,0,.65-.15,2.14,2.14,0,0,0,1-.92,2.31,2.31,0,0,0,.24-1.4,2.08,2.08,0,0,0-2.1-1.83l-5.63.08-2.46,0a2.07,2.07,0,0,0-1.78,1.14,2.11,2.11,0,0,0-.22.93,2.28,2.28,0,0,0,.13.84,2.09,2.09,0,0,0,.85,1,2,2,0,0,0,.81.27A1.07,1.07,0,0,0,168.93,378Z" style="fill:#263238"></path><path d="M169.56,373.34a25.12,25.12,0,0,0,3.2.06,24.11,24.11,0,0,0,3.19-.14,28.85,28.85,0,0,0-3.19-.05A27.85,27.85,0,0,0,169.56,373.34Z" style="fill:#fff"></path><path d="M222,377.68s-.1,0-.29,0a2,2,0,0,1-.77-.29,1.9,1.9,0,0,1-.79-1,2,2,0,0,1-.11-.8,2,2,0,0,1,.21-.87,1.94,1.94,0,0,1,1.67-1l2.45,0,5.64-.07a1.89,1.89,0,0,1,1.91,1.67,2.16,2.16,0,0,1-.21,1.29,2,2,0,0,1-.93.84,2.74,2.74,0,0,1-1.21.16l-1.19,0-2.14,0-3.1.07-.85,0-.29,0a.94.94,0,0,0,.29,0h3.95l2.14,0h1.82a2.14,2.14,0,0,0,.65-.16,2,2,0,0,0,1-.91,2.35,2.35,0,0,0,.25-1.4,2.14,2.14,0,0,0-.69-1.31,2.06,2.06,0,0,0-1.41-.53l-5.64.08-2.46,0a2.09,2.09,0,0,0-1.78,1.14,2,2,0,0,0-.21.93,2.09,2.09,0,0,0,.13.84,2,2,0,0,0,1.65,1.3A1.13,1.13,0,0,0,222,377.68Z" style="fill:#263238"></path><path d="M222.65,373a28.85,28.85,0,0,0,3.19.05,27.85,27.85,0,0,0,3.2-.13,25,25,0,0,0-3.2-.06A24.11,24.11,0,0,0,222.65,373Z" style="fill:#fff"></path><path d="M72.75,416.52a2.28,2.28,0,0,0,0-.25v-.75c0-.33,0-.73,0-1.21s.06-1,.09-1.65.16-1.31.24-2.06c0-.37.14-.76.22-1.16s.14-.83.25-1.26a35.26,35.26,0,0,1,1.93-5.67,32.42,32.42,0,0,1,3.71-6.23,30.58,30.58,0,0,1,5.88-5.88,28,28,0,0,1,8.11-4.29,31.44,31.44,0,0,1,19.47-.25,28.6,28.6,0,0,1,8.22,4.08,30.29,30.29,0,0,1,6,5.73,32.26,32.26,0,0,1,3.88,6.13,34.75,34.75,0,0,1,2.06,5.63c.13.42.2.85.29,1.25s.19.78.25,1.15c.1.75.23,1.43.29,2.05s.1,1.17.14,1.65,0,.89,0,1.21l0,.75a2.28,2.28,0,0,0,0,.25s0-.08,0-.25v-.75c0-.32,0-.73,0-1.21s-.07-1-.12-1.65-.18-1.31-.28-2.06c0-.38-.15-.76-.23-1.17s-.17-.82-.28-1.25a34.81,34.81,0,0,0-2.05-5.65,32.86,32.86,0,0,0-3.88-6.18,30.3,30.3,0,0,0-6-5.77,28.32,28.32,0,0,0-8.27-4.11,32,32,0,0,0-9.81-1.43,32.4,32.4,0,0,0-9.77,1.68A28.31,28.31,0,0,0,85,390.26a30.31,30.31,0,0,0-5.9,5.92,32.75,32.75,0,0,0-3.71,6.27,34.42,34.42,0,0,0-1.91,5.71c-.11.43-.17.86-.25,1.26s-.16.79-.2,1.17c-.09.75-.19,1.44-.23,2.06s-.06,1.18-.08,1.66,0,.88,0,1.21l0,.75A2.28,2.28,0,0,0,72.75,416.52Z" style="fill:#455a64"></path><path d="M228.57,344.43h.63l1.82,0,6.69-.08,22.07-.35,12.16-.22c3.73-.08,7.1-.09,9.92-.29a48.87,48.87,0,0,0,6.64-.85c.77-.16,1.37-.3,1.77-.41l.46-.13.15,0-.16,0-.46.11c-.4.1-1,.23-1.78.38a52.21,52.21,0,0,1-6.63.79c-2.82.18-6.18.18-9.92.25l-12.15.2-22.07.41-6.69.14-1.82,0-.47,0Z" style="fill:#263238"></path><path d="M203.22,354.27s3.91,2.09,8.79,4.57,8.86,4.45,8.88,4.4-3.91-2.09-8.79-4.57S203.24,354.22,203.22,354.27Z" style="fill:#fafafa"></path><path d="M195,352.73l.19.11.56.3,2.07,1.05c1.75.89,4.17,2.12,6.81,3.52s5,2.7,6.75,3.64l2,1.12.56.3.2.09-.18-.13-.54-.32c-.47-.29-1.16-.69-2-1.17-1.71-1-4.08-2.29-6.73-3.69s-5.07-2.62-6.84-3.48c-.88-.43-1.6-.77-2.1-1l-.57-.26Z" style="fill:#fafafa"></path><path d="M159.53,356.16l.15.08.46.21,1.67.72c1.42.61,3.37,1.47,5.5,2.47s4,1.94,5.42,2.63l1.63.82.44.22.17.07-.15-.1-.43-.25-1.6-.88c-1.36-.72-3.27-1.68-5.4-2.68s-4.1-1.84-5.53-2.42c-.71-.29-1.29-.52-1.7-.67l-.46-.17C159.59,356.17,159.53,356.15,159.53,356.16Z" style="fill:#fafafa"></path><path d="M164.63,355.59a7.94,7.94,0,0,0,1,.52c.64.3,1.52.73,2.47,1.25s1.8,1,2.4,1.39a8.52,8.52,0,0,0,1,.58,6.76,6.76,0,0,0-.93-.69c-.59-.4-1.42-.93-2.38-1.45s-1.85-.93-2.51-1.2A6.15,6.15,0,0,0,164.63,355.59Z" style="fill:#fafafa"></path><path d="M244.82,354.37c0,.05,2.59,1.06,5.82,2.25s5.86,2.12,5.87,2.08-2.58-1.06-5.81-2.25S244.84,354.32,244.82,354.37Z" style="fill:#fafafa"></path><path d="M248.14,353.25c0,.05,2.23.88,5,1.86s5.06,1.73,5.08,1.68-2.23-.88-5-1.86S248.16,353.21,248.14,353.25Z" style="fill:#fafafa"></path><path d="M97.06,383.44l.29,0,.84-.09.6-.07.72-.06c.52,0,1.11-.09,1.76-.09l1,0,1.11,0c.77,0,1.58.08,2.44.15a40.73,40.73,0,0,1,5.53,1,39,39,0,0,1,5.3,1.84c.78.36,1.53.69,2.21,1.06.33.18.67.34,1,.52l.88.52c.57.32,1,.66,1.49.94l.6.4.5.36.68.49c.16.11.24.17.25.16l-.23-.19-.66-.52-.48-.37c-.18-.14-.39-.27-.6-.42-.43-.29-.91-.64-1.48-1l-.88-.53c-.31-.18-.64-.34-1-.53-.67-.38-1.43-.71-2.21-1.08a35.08,35.08,0,0,0-10.88-2.84c-.86-.06-1.69-.14-2.46-.14-.38,0-.76,0-1.11,0l-1,0c-.66,0-1.25.08-1.77.12l-.72.07-.6.09-.84.13A.9.9,0,0,0,97.06,383.44Z" style="fill:#fafafa"></path><path d="M245.94,380.58h.89c.29,0,.65,0,1.06,0s.87,0,1.39.07l.8.06.87.11c.61.06,1.24.18,1.91.28a42.72,42.72,0,0,1,4.31,1.06c1.5.47,2.9,1,4.15,1.55s2.35,1.09,3.26,1.59c.46.23.86.47,1.21.67s.67.38.91.53l.57.34.21.11s-.06-.06-.18-.14l-.56-.37c-.24-.16-.54-.35-.89-.56s-.75-.46-1.21-.7c-.9-.51-2-1.06-3.25-1.62a40.59,40.59,0,0,0-4.17-1.57A38.07,38.07,0,0,0,252.9,381c-.68-.1-1.32-.21-1.93-.27l-.88-.09-.81-.05c-.51,0-1,0-1.39,0s-.77,0-1.06,0l-.66,0Z" style="fill:#fafafa"></path><rect x="595.68" y="386.16" width="2.59" height="12.44" style="fill:#fafafa"></rect><path d="M408.64,257.2a3.86,3.86,0,0,1-1.29-.55l.64-1.45a4.29,4.29,0,0,0,1.08.5,4.35,4.35,0,0,0,1.21.19c.75,0,1.13-.19,1.13-.57a.47.47,0,0,0-.32-.44,7.17,7.17,0,0,0-1-.3,9.32,9.32,0,0,1-1.3-.36,2.24,2.24,0,0,1-.9-.62,1.68,1.68,0,0,1-.38-1.15,2,2,0,0,1,.35-1.14,2.31,2.31,0,0,1,1-.81,4.22,4.22,0,0,1,1.69-.3,5.66,5.66,0,0,1,1.35.16,4.07,4.07,0,0,1,1.17.45l-.61,1.45a4.1,4.1,0,0,0-1.92-.53,1.67,1.67,0,0,0-.85.17.53.53,0,0,0-.27.45.45.45,0,0,0,.32.42,5.91,5.91,0,0,0,1,.29,9.12,9.12,0,0,1,1.31.36,2.22,2.22,0,0,1,.9.61,1.65,1.65,0,0,1,.38,1.14,1.93,1.93,0,0,1-.34,1.13,2.4,2.4,0,0,1-1,.81,4.29,4.29,0,0,1-1.69.3A6.34,6.34,0,0,1,408.64,257.2Z" style="fill:#fff"></path><path d="M420.84,250.34v6.93h-2v-2.7H416.2v2.7h-2v-6.93h2V253h2.68v-2.61Z" style="fill:#fff"></path><path d="M423.74,257a3.49,3.49,0,0,1-1.87-3.14,3.4,3.4,0,0,1,.5-1.85,3.47,3.47,0,0,1,1.37-1.29,4.41,4.41,0,0,1,4,0,3.47,3.47,0,0,1,1.37,1.29,3.4,3.4,0,0,1,.5,1.85A3.49,3.49,0,0,1,427.7,257a4.49,4.49,0,0,1-4,0Zm2.93-1.41a1.74,1.74,0,0,0,.67-.7,2,2,0,0,0,.25-1,2.08,2.08,0,0,0-.25-1,1.81,1.81,0,0,0-.67-.7,2,2,0,0,0-1.9,0,1.81,1.81,0,0,0-.67.7,2.08,2.08,0,0,0-.25,1,2,2,0,0,0,.25,1,1.74,1.74,0,0,0,.67.7,1.93,1.93,0,0,0,1.9,0Z" style="fill:#fff"></path><path d="M435.4,250.65a2.38,2.38,0,0,1,1.07.9,2.36,2.36,0,0,1,.38,1.36,2.33,2.33,0,0,1-.38,1.35,2.36,2.36,0,0,1-1.07.89,3.89,3.89,0,0,1-1.63.31h-1.21v1.81h-2v-6.93h3.17A4,4,0,0,1,435.4,250.65Zm-.84,3a.9.9,0,0,0,.31-.74.94.94,0,0,0-.31-.76,1.37,1.37,0,0,0-.91-.26h-1.09v2h1.09A1.32,1.32,0,0,0,434.56,253.65Z" style="fill:#fff"></path><rect x="164.15" y="138.83" width="528.7" height="51.64" style="fill:#47904C"></rect><g style="opacity:0.30000000000000004"><polygon points="269.88 138.83 219.24 190.47 256.56 190.47 306.08 138.83 269.88 138.83" style="fill:#fff"></polygon></g><g style="opacity:0.30000000000000004"><polygon points="273.69 190.47 320.19 138.83 331.76 138.83 285.01 190.47 273.69 190.47" style="fill:#fff"></polygon></g><g style="opacity:0.30000000000000004"><polygon points="581.08 138.83 530.45 190.47 567.77 190.47 617.28 138.83 581.08 138.83" style="fill:#fff"></polygon></g><g style="opacity:0.30000000000000004"><polygon points="584.9 190.47 631.4 138.83 642.97 138.83 596.22 190.47 584.9 190.47" style="fill:#fff"></polygon></g><path d="M486.87,433.84c-.15,0-.26-46.57-.26-104s.11-104,.26-104,.26,46.56.26,104S487,433.84,486.87,433.84Z" style="fill:#263238"></path><polygon points="469.8 280.47 355.07 366.46 354.86 390.77 486.87 299.14 486.85 280.44 469.8 280.47" style="fill:#fff"></polygon><path d="M355.07,433.74c-.15,0-.26-46.54-.26-103.95s.11-104,.26-104,.26,46.54.26,104S355.21,433.74,355.07,433.74Z" style="fill:#263238"></path><path d="M419.82,434.79c-.14,0-.26-34.36-.26-76.73s.12-76.73.26-76.73.26,34.35.26,76.73S420,434.79,419.82,434.79Z" style="fill:#263238"></path><rect x="423.81" y="331.81" width="5.24" height="35.86" style="fill:#455a64"></rect><rect x="409.82" y="331.81" width="5.24" height="35.86" style="fill:#455a64"></rect><circle cx="426.4" cy="139.44" r="29.21" style="fill:#e0e0e0"></circle><path d="M455.61,139.44a4.37,4.37,0,0,1-.05-.47c0-.34-.06-.8-.1-1.39q0-.47-.06-1c0-.37-.12-.78-.19-1.22a20.85,20.85,0,0,0-.61-3,28.13,28.13,0,0,0-3.24-7.73A29.2,29.2,0,0,0,431.75,111a27.51,27.51,0,0,0-3.66-.42c-.63,0-1.26-.08-1.89-.07l-1.92.1a12.66,12.66,0,0,0-1.93.21c-.65.11-1.3.18-2,.32a32,32,0,0,0-3.86,1.13,30,30,0,0,0-3.78,1.67c-.61.33-1.2.71-1.8,1.07a16,16,0,0,0-1.75,1.21,32,32,0,0,0-3.28,2.79,31.7,31.7,0,0,0-2.84,3.36,28.1,28.1,0,0,0-4.14,8,28.75,28.75,0,0,0,0,18.27,28,28,0,0,0,4.14,8,34,34,0,0,0,2.83,3.36,33.26,33.26,0,0,0,3.29,2.79,14.66,14.66,0,0,0,1.75,1.2c.6.36,1.19.75,1.8,1.08a29.93,29.93,0,0,0,3.78,1.66,30.32,30.32,0,0,0,3.86,1.14c.65.13,1.3.21,2,.32a12.66,12.66,0,0,0,1.93.21l1.92.1c.64,0,1.26,0,1.89-.07a27.46,27.46,0,0,0,3.67-.43,28.76,28.76,0,0,0,12.2-5.4,29.09,29.09,0,0,0,7.4-8.23,28,28,0,0,0,3.24-7.74,20.85,20.85,0,0,0,.61-3c.07-.44.15-.84.19-1.21s0-.72.06-1c0-.59.07-1.05.1-1.39a4.37,4.37,0,0,1,.05-.47s0,.16,0,.47,0,.8,0,1.39c0,.31,0,.65,0,1s-.11.78-.17,1.23a19.5,19.5,0,0,1-.57,3,27.92,27.92,0,0,1-3.18,7.84,29.38,29.38,0,0,1-19.78,13.91,26.48,26.48,0,0,1-3.71.44c-.64,0-1.28.09-1.92.08l-1.95-.1a12,12,0,0,1-2-.21c-.65-.1-1.32-.18-2-.31a29.77,29.77,0,0,1-3.93-1.15,30.84,30.84,0,0,1-3.84-1.68c-.62-.33-1.22-.73-1.84-1.09a15.16,15.16,0,0,1-1.78-1.22,32,32,0,0,1-3.34-2.84,31.54,31.54,0,0,1-2.89-3.41,28.38,28.38,0,0,1-4.22-8.12,29.18,29.18,0,0,1,0-18.59,28.51,28.51,0,0,1,4.22-8.12,26.87,26.87,0,0,1,6.23-6.24,16,16,0,0,1,1.78-1.22c.62-.37,1.22-.76,1.84-1.1a30.84,30.84,0,0,1,3.84-1.68,31.31,31.31,0,0,1,3.93-1.14c.66-.14,1.33-.21,2-.32a13.18,13.18,0,0,1,2-.21l1.95-.09c.64,0,1.28,0,1.91.08a26.45,26.45,0,0,1,3.72.44,29.38,29.38,0,0,1,19.78,13.91,27.87,27.87,0,0,1,3.18,7.83,19.39,19.39,0,0,1,.57,3c.06.44.14.85.17,1.23l0,1c0,.6,0,1.06,0,1.4S455.61,139.44,455.61,139.44Z" style="fill:#263238"></path><path d="M419.45,126h13.76a.56.56,0,0,0,.12,0,2.44,2.44,0,0,1,1.46.85,2.68,2.68,0,0,1,.58,1.81V144h1.1v-.37c0-2.88,0-5.76,0-8.63a1.35,1.35,0,0,1,.2-.77c.71-1,1.46-1.92,2.2-2.87a.81.81,0,0,1,1.17-.15.83.83,0,0,1,.12,1.16c-.17.23-.35.47-.53.69a.76.76,0,0,0-.19.52c0,1,0,2,0,3a.82.82,0,0,1-.86.89h-.49v7.24c0,.67-.31,1-1,1-.51,0-1,0-1.51,0-.21,0-.26.06-.26.27,0,1,0,2,0,2.95,0,.07,0,.14,0,.23H436c.7,0,1,.3,1,1,0,1,0,1.92,0,2.88,0,.77-.29,1-1.06,1h-19.2c-.75,0-.92-.12-1.14-.82V150c.22-.7.39-.82,1.14-.82h.53V142.2q0-6.75,0-13.5a2.45,2.45,0,0,1,1-2.18A5.75,5.75,0,0,1,419.45,126Z" style="fill:#fff"></path><g id="freepik--nckllstif--inject-104"><path d="M426.34,136.86h-4.79c-.67,0-1-.3-1-1q0-2.8,0-5.61c0-.68.31-1,1-1h9.53c.67,0,1,.3,1,1v5.58c0,.7-.3,1-1,1Z" style="fill:#e0e0e0"></path><path d="M422.46,140.26c-.34,0-.69,0-1,0a.82.82,0,1,1,0-1.64h2.11a.82.82,0,0,1,.83.83.83.83,0,0,1-.86.81C423.16,140.27,422.81,140.26,422.46,140.26Z" style="fill:#e0e0e0"></path></g><path d="M435.74,149a85.15,85.15,0,0,1-9.34.26,85.3,85.3,0,0,1-9.34-.26,82.4,82.4,0,0,1,9.34-.26A82.25,82.25,0,0,1,435.74,149Z" style="fill:#e0e0e0"></path><path d="M397.56,175.59h1.73v2.87a4.3,4.3,0,0,1-1.36.66,5.53,5.53,0,0,1-1.55.22,4.11,4.11,0,0,1-2-.46,3.36,3.36,0,0,1-1.36-1.28,3.71,3.71,0,0,1,0-3.72,3.32,3.32,0,0,1,1.37-1.28,4.2,4.2,0,0,1,2-.46,4.44,4.44,0,0,1,1.75.32,3.36,3.36,0,0,1,1.28.94l-1.24,1.13a2.22,2.22,0,0,0-1.69-.77,1.94,1.94,0,0,0-1.43.54,1.91,1.91,0,0,0-.55,1.44,2.09,2.09,0,0,0,.25,1,1.79,1.79,0,0,0,.69.7,2,2,0,0,0,1,.25,2.52,2.52,0,0,0,1.06-.23Z" style="fill:#fff"></path><path d="M405.19,177.86h-2.93l-.55,1.35h-2l3.06-6.94h1.93l3.07,6.94h-2Zm-.58-1.45-.89-2.21-.89,2.21Z" style="fill:#fff"></path><path d="M409.13,179.14a4.07,4.07,0,0,1-1.29-.56l.64-1.44a4.12,4.12,0,0,0,1.08.49,4,4,0,0,0,1.21.19c.75,0,1.13-.19,1.13-.56a.49.49,0,0,0-.32-.45,7.17,7.17,0,0,0-1-.3,9.32,9.32,0,0,1-1.3-.36,2.15,2.15,0,0,1-.9-.62,1.61,1.61,0,0,1-.38-1.15,1.92,1.92,0,0,1,.35-1.14,2.31,2.31,0,0,1,1-.81,4.23,4.23,0,0,1,1.69-.29,6.21,6.21,0,0,1,1.35.15,3.9,3.9,0,0,1,1.16.45l-.6,1.46a4,4,0,0,0-1.92-.54,1.67,1.67,0,0,0-.85.17.53.53,0,0,0-.27.45.45.45,0,0,0,.32.42,5.91,5.91,0,0,0,1,.29,9.12,9.12,0,0,1,1.31.36,2.22,2.22,0,0,1,.9.61,1.66,1.66,0,0,1,.38,1.15,1.91,1.91,0,0,1-.35,1.13,2.36,2.36,0,0,1-1,.8,4.29,4.29,0,0,1-1.69.3A6.33,6.33,0,0,1,409.13,179.14Z" style="fill:#fff"></path><path d="M418.47,179a3,3,0,0,1-1.14-.63l.36-.77a3.13,3.13,0,0,0,1,.58,3.69,3.69,0,0,0,1.27.22,2.26,2.26,0,0,0,1.29-.29.89.89,0,0,0,.42-.78.76.76,0,0,0-.23-.58,1.69,1.69,0,0,0-.57-.34,8.35,8.35,0,0,0-1-.26,11.85,11.85,0,0,1-1.26-.38,2.16,2.16,0,0,1-.82-.58,1.53,1.53,0,0,1-.34-1,1.73,1.73,0,0,1,.29-1,2,2,0,0,1,.88-.72,3.59,3.59,0,0,1,1.48-.27,5,5,0,0,1,1.21.16,3.41,3.41,0,0,1,1,.46l-.33.79a3.9,3.9,0,0,0-.93-.42,3.3,3.3,0,0,0-1-.14,2.17,2.17,0,0,0-1.26.3,1,1,0,0,0-.42.8.8.8,0,0,0,.23.58,1.79,1.79,0,0,0,.59.34c.24.08.56.17,1,.26a11.85,11.85,0,0,1,1.26.38,2.21,2.21,0,0,1,.81.57,1.52,1.52,0,0,1,.34,1,1.75,1.75,0,0,1-.29,1,2,2,0,0,1-.9.71,3.68,3.68,0,0,1-1.49.26A4.82,4.82,0,0,1,418.47,179Z" style="fill:#fff"></path><path d="M425.39,173.14H423v-.87h5.73v.87h-2.37v6.07h-1Z" style="fill:#fff"></path><path d="M433.89,177.47h-3.68l-.76,1.74h-1l3.14-6.94h1l3.15,6.94h-1Zm-.34-.79-1.5-3.4-1.49,3.4Z" style="fill:#fff"></path><path d="M437.76,173.14h-2.38v-.87h5.73v.87h-2.37v6.07h-1Z" style="fill:#fff"></path><path d="M442.19,172.27h1v6.94h-1Z" style="fill:#fff"></path><path d="M446.5,178.82a3.36,3.36,0,0,1-1.32-1.27,3.65,3.65,0,0,1,0-3.62,3.36,3.36,0,0,1,1.32-1.27,3.84,3.84,0,0,1,1.89-.47,3.8,3.8,0,0,1,1.88.47,3.33,3.33,0,0,1,1.32,1.26,3.69,3.69,0,0,1,0,3.64,3.33,3.33,0,0,1-1.32,1.26,3.79,3.79,0,0,1-1.88.46A3.83,3.83,0,0,1,446.5,178.82Zm3.26-.76a2.46,2.46,0,0,0,1-1,2.75,2.75,0,0,0,0-2.72,2.46,2.46,0,0,0-1-1,2.7,2.7,0,0,0-1.37-.34,2.77,2.77,0,0,0-1.38.34,2.49,2.49,0,0,0-1,1,2.82,2.82,0,0,0,0,2.72,2.49,2.49,0,0,0,1,1,2.77,2.77,0,0,0,1.38.34A2.7,2.7,0,0,0,449.76,178.06Z" style="fill:#fff"></path><path d="M459.54,172.27v6.94h-.81L454.57,174v5.17h-1v-6.94h.81l4.16,5.17v-5.17Z" style="fill:#fff"></path><rect x="322.6" y="233.95" width="69.32" height="27.54" style="fill:#fff"></rect><rect x="322.6" y="233.95" width="69.32" height="11.74" style="fill:#263238"></rect><rect x="322.6" y="245.69" width="31.86" height="15.8" style="fill:#47904C"></rect><path d="M349.37,255.91c0,.14-4.85.26-10.84.26s-10.84-.12-10.84-.26,4.86-.26,10.84-.26S349.37,255.76,349.37,255.91Z" style="fill:#263238"></path><path d="M349.37,252.23c0,.15-4.85.26-10.84.26s-10.84-.11-10.84-.26,4.86-.26,10.84-.26S349.37,252.09,349.37,252.23Z" style="fill:#263238"></path><path d="M383.11,255.91c0,.14-5.42.26-12.1.26s-12.11-.12-12.11-.26,5.42-.26,12.11-.26S383.11,255.76,383.11,255.91Z" style="fill:#263238"></path><path d="M383.11,252.23c0,.15-5.42.26-12.1.26s-12.11-.11-12.11-.26S364.32,252,371,252,383.11,252.09,383.11,252.23Z" style="fill:#263238"></path><path d="M386.69,239.82c0,.14-13.21.26-29.5.26s-29.5-.12-29.5-.26,13.21-.26,29.5-.26S386.69,239.67,386.69,239.82Z" style="fill:#fff"></path><rect x="289.68" y="328.12" width="5.15" height="7.38" style="fill:#263238"></rect><rect x="264.73" y="348.78" width="34.13" height="26.51" style="fill:#f5f5f5"></rect><rect x="218.91" y="211.83" width="86.83" height="79.46" style="fill:#47904C"></rect><path d="M258.93,323.76V433.84h45.24V323.76Zm39,50.85H265.24l-.05-46.49h32.68Z" style="fill:#e0e0e0"></path><rect x="265.04" y="374.42" width="11.08" height="22.22" style="fill:#455a64"></rect><polygon points="222.37 433.84 204.04 433.74 204.04 207.01 222.37 207.01 222.37 433.84" style="fill:#e0e0e0"></polygon><path d="M222.37,433.84s0-.41,0-1.17,0-1.92,0-3.41c0-3,0-7.39,0-13.07,0-11.36-.05-27.82-.08-48.24,0-40.82-.07-97.48-.11-160.94l.26.26H204l.26-.26c-.07,102.61-.13,190.45-.16,226.73l-.1-.1,13.6.13,3.52,0,1.21,0H217.7l-13.66,0H204v-.09c0-36.28-.09-124.12-.17-226.73v-.26h18.85V207c0,63.53-.08,120.27-.11,161.13,0,20.4-.06,36.83-.08,48.18,0,5.65,0,10,0,13,0,1.48,0,2.6,0,3.37S222.37,433.84,222.37,433.84Z" style="fill:#263238"></path><rect x="304.15" y="203.25" width="18.27" height="230.58" style="fill:#e0e0e0"></rect><path d="M322.42,433.84s0-.41,0-1.19,0-1.95,0-3.46c0-3.05,0-7.52,0-13.3,0-11.55,0-28.28-.07-49,0-41.5-.07-99.1-.11-163.6l.26.26H304.15l.26-.26c-.08,104.6-.14,194.09-.17,230.59l-.09-.1,13.57.05,3.5,0c.79,0,1.2,0,1.2,0h-1.17l-3.47,0-13.63.05h-.1v-.09c0-36.5-.09-126-.16-230.59V203h18.79v.26c-.05,64.57-.08,122.25-.11,163.79,0,20.74-.06,37.45-.08,49,0,5.75,0,10.21,0,13.24,0,1.5,0,2.64,0,3.42S322.42,433.84,322.42,433.84Z" style="fill:#263238"></path><rect x="269.11" y="328.12" width="5.15" height="7.38" style="fill:#263238"></rect><rect x="279.22" y="328.12" width="5.15" height="7.38" style="fill:#263238"></rect><rect x="222.37" y="393.99" width="36.54" height="39.85" style="fill:#47904C"></rect><rect x="231.72" y="323.76" width="27.19" height="70.23" style="fill:#e0e0e0"></rect><rect x="267.85" y="378.01" width="5.4" height="18.63" style="fill:#263238"></rect><path d="M271.4,386.31h-1.64V380.5a.82.82,0,0,1,.82-.82h0a.82.82,0,0,1,.82.82Z" style="fill:#e0e0e0"></path><polyline points="263.51 433.84 263.51 404.57 297.79 404.57 297.79 433.21" style="fill:none"></polyline><path d="M265.7,429.55a4.63,4.63,0,0,1-4.9-4.24c-.1-3.52-.08-9.17-.06-14.14,0-2.28,0-4.44,0-6.23,0-5.63,3.59-23.95,6.22-37.32.94-4.8,1.76-8.95,2.25-11.7s1.18-8.53,1.92-21.69c.05-.91.06-1.16.54-1.16v.5l.49.06s0,.27,0,.65c-.75,13.22-1.46,19.16-1.94,21.81S268.9,363,268,367.82c-2.62,13.33-6.21,31.58-6.2,37.12,0,1.79,0,3.95,0,6.23,0,5,0,10.6.06,14.12a3.69,3.69,0,0,0,3.9,3.26,4.2,4.2,0,0,0,3-1.19,3.08,3.08,0,0,0,.92-2.19l.08-29.74h1l-.08,29.73a4.08,4.08,0,0,1-1.21,2.9A5.2,5.2,0,0,1,265.7,429.55Z" style="fill:#263238"></path><rect x="235.29" y="333.57" width="20.05" height="14.95" style="fill:#455a64"></rect><rect x="237.37" y="335.27" width="15.89" height="11.57" style="fill:#263238"></rect><path d="M245.33,356.33s-.1-1.05-.16-2.63l.16.16c-2.16.06-5.56.1-9.38.1l.26-.26h0V355c0,.44,0,.87,0,1.29l-.25-.25c2.63,0,4.94.06,6.62.11s2.72.1,2.76.14a18.23,18.23,0,0,1-2.59.14c-1.66,0-4.05.11-6.79.12h-.26v-2.87h0l.26-.26c3.82,0,7.22,0,9.38.1h.17v.15A17.23,17.23,0,0,1,245.33,356.33Z" style="fill:#263238"></path><rect x="269.05" y="386.31" width="3.05" height="12.15" style="fill:#47904C"></rect><rect x="275.47" y="374.42" width="11.08" height="22.22" style="fill:#455a64"></rect><rect x="278.28" y="378.01" width="5.4" height="18.63" style="fill:#263238"></rect><path d="M281.82,386.31h-1.63V380.5a.82.82,0,0,1,.82-.82h0a.82.82,0,0,1,.81.82Z" style="fill:#e0e0e0"></path><path d="M276.13,429.55c-2.56,0-3.48-.43-3.55-2.88-.1-3.53-.08-9.17-.05-14.15,0-2.28,0-4.44,0-6.22,0-5.64,3.59-24,6.22-37.33.95-4.8,1.76-8.94,2.25-11.7.68-3.8.9-12,.62-23.21,0-.68,0-.68.13-.83l.36.34v0h.49s0,.2,0,.46c.16,6.5.3,18.18-.63,23.41-.5,2.76-1.31,6.91-2.26,11.71-2.62,13.34-6.21,31.6-6.2,37.13,0,1.79,0,3.95,0,6.24,0,5,0,10.6.05,14.11.05,1.71.31,1.91,2.55,1.91a4.16,4.16,0,0,0,3-1.19,3,3,0,0,0,.93-2.19l.08-29.74h1L281,425.16a4.05,4.05,0,0,1-1.22,2.9A5.16,5.16,0,0,1,276.13,429.55Z" style="fill:#263238"></path><rect x="279.48" y="386.31" width="3.05" height="12.15" style="fill:#455a64"></rect><rect x="285.89" y="374.42" width="11.08" height="22.22" style="fill:#455a64"></rect><rect x="288.71" y="378.01" width="5.4" height="18.63" style="fill:#263238"></rect><path d="M292.25,386.31h-1.64V380.5a.82.82,0,0,1,.82-.82h0a.82.82,0,0,1,.82.82Z" style="fill:#e0e0e0"></path><rect x="287.02" y="352.47" width="8.44" height="8.44" style="fill:#455a64"></rect><path d="M283.16,354.82a54,54,0,0,1-7.43.26,53.81,53.81,0,0,1-7.42-.26,52,52,0,0,1,7.42-.26A52.19,52.19,0,0,1,283.16,354.82Z" style="fill:#263238"></path><path d="M283.16,356.75a52.19,52.19,0,0,1-7.43.26,52,52,0,0,1-7.42-.26,53.81,53.81,0,0,1,7.42-.26A54,54,0,0,1,283.16,356.75Z" style="fill:#263238"></path><path d="M283.16,358.68a52.19,52.19,0,0,1-7.43.26,52,52,0,0,1-7.42-.26,53.81,53.81,0,0,1,7.42-.26A54,54,0,0,1,283.16,358.68Z" style="fill:#263238"></path><path d="M287.54,429.55h-1v-.08a4.51,4.51,0,0,1-3.92-4.16c-.1-3.52-.08-9.17-.06-14.14,0-2.28,0-4.44,0-6.23,0-5.63,3.59-23.95,6.22-37.32.94-4.8,1.76-8.95,2.25-11.7.67-3.79,1-11.56,1-21.86,0-.69,0-.69.15-.84l.35.35v0l.5,0v.45c0,10.37-.3,18.2-1,22-.49,2.77-1.31,6.92-2.25,11.73-2.62,13.33-6.21,31.58-6.2,37.12,0,1.79,0,3.95,0,6.23,0,5,0,10.6.06,14.12a3.6,3.6,0,0,0,3.41,3.23,4.09,4.09,0,0,0,2.49-1.16,3,3,0,0,0,.92-2.19l.08-29.74h1l-.08,29.73a4,4,0,0,1-1.21,2.9,5,5,0,0,1-2.71,1.4Z" style="fill:#263238"></path><path d="M258.93,323.34c.15,0,.26,24.49.26,54.69s-.11,54.69-.26,54.69-.26-24.49-.26-54.69S258.79,323.34,258.93,323.34Z" style="fill:#263238"></path><path d="M237.51,335.37c-.09.11-.66-.2-1.27-.69s-1-1-1-1.11.66.2,1.27.7S237.6,335.26,237.51,335.37Z" style="fill:#263238"></path><path d="M255.45,333.57c.09.11-.4.69-1.09,1.28s-1.34,1-1.43.88.39-.68,1.09-1.27S255.35,333.47,255.45,333.57Z" style="fill:#263238"></path><path d="M253.19,346.73c.09-.11.66.2,1.27.69s1,1,.95,1.11-.66-.2-1.27-.7S253.1,346.84,253.19,346.73Z" style="fill:#263238"></path><path d="M235.25,348.53c-.09-.11.4-.69,1.09-1.28s1.34-1,1.43-.88-.39.68-1.09,1.27S235.35,348.63,235.25,348.53Z" style="fill:#263238"></path><path d="M258.34,225.47h11.05a.32.32,0,0,0,.09,0,2,2,0,0,1,1.18.68,2.12,2.12,0,0,1,.46,1.45v12.31H272v-.3q0-3.46,0-6.93a1.17,1.17,0,0,1,.16-.62c.57-.78,1.17-1.54,1.77-2.3a.65.65,0,0,1,.94-.12.67.67,0,0,1,.1.93c-.14.19-.28.37-.43.55a.6.6,0,0,0-.15.42q0,1.2,0,2.4a.64.64,0,0,1-.68.71h-.4v1.08c0,1.57,0,3.15,0,4.73,0,.53-.24.77-.78.77h-1.21c-.17,0-.21,0-.21.21,0,.79,0,1.59,0,2.38,0,0,0,.11,0,.18h.5c.56,0,.8.24.8.8,0,.77,0,1.54,0,2.31,0,.62-.22.85-.84.85H256.18c-.61,0-.74-.1-.92-.66V244.7c.18-.56.31-.66.92-.66h.42V227.63a2,2,0,0,1,.81-1.76A4.83,4.83,0,0,1,258.34,225.47Z" style="fill:#fff"></path><g id="freepik--nckllstif--inject-104"><path d="M263.87,234.18H260a.68.68,0,0,1-.78-.78v-4.51c0-.54.25-.78.8-.78h7.65c.55,0,.79.24.79.79v4.49c0,.56-.24.79-.81.79Z" style="fill:#47904C"></path><path d="M260.76,236.91h-.84a.66.66,0,1,1,0-1.32h1.69a.66.66,0,1,1,0,1.32Z" style="fill:#47904C"></path></g><path d="M271.42,243.93a55,55,0,0,1-7.5.26,55,55,0,0,1-7.5-.26,53.16,53.16,0,0,1,7.5-.26A53.16,53.16,0,0,1,271.42,243.93Z" style="fill:#47904C"></path><path d="M264.38,263.25c0,.15-5.63.26-12.57.26s-12.57-.11-12.57-.26,5.63-.26,12.57-.26S264.38,263.11,264.38,263.25Z" style="fill:#fff"></path><path d="M353.14,433.74c0,.15-38.54.27-86.07.27s-86.07-.12-86.07-.27,38.53-.26,86.07-.26S353.14,433.6,353.14,433.74Z" style="fill:#263238"></path><rect x="289.91" y="386.31" width="3.05" height="12.15" style="fill:#f5f5f5"></rect><rect x="182.3" y="190.47" width="160.3" height="11.41" style="fill:#e0e0e0"></rect><path d="M182.3,190.47l.8,0h2.37l9.21,0,34.06-.08,113.85-.11h.26v11.66h0v.26h-.26L182.3,202h-.09v-.09c0-3.78,0-6.64,0-8.56l0-2.14c0-.48,0-.71,0-.71s0,.25,0,.74l0,2.16c0,1.92,0,4.75,0,8.51l-.09-.09,160.29-.17-.26.26h0v-11.4l.26.26-113.66-.11-34.12-.07-9.27,0-2.41,0Z" style="fill:#263238"></path><polygon points="202.34 212.15 182.3 201.88 342.59 201.88 322.56 212.15 202.34 212.15" style="fill:#e0e0e0"></polygon><path d="M202.33,212.15s.21,0,.6,0l1.73,0,6.71,0,25.07-.07,86.12-.09-.12,0,20-10.27.11.49h-20L182.3,202l.06-.25,14.83,7.67,3.84,2,1,.52c.22.12.32.19.32.19L202,212l-1-.48-3.86-1.95L182.24,202l-.49-.24h.55l140.26-.13h21.1l-1,.49-20,10.26-.05,0h-.06l-86.18-.1-25-.07-6.7,0-1.72,0Z" style="fill:#263238"></path><path d="M274.12,260.73v5.18h-1.47v-4.05h-1v-1.13Z" style="fill:#fff"></path><path d="M276.29,264.54a.78.78,0,0,1,.24.6,1.4,1.4,0,0,1,0,.34,3.15,3.15,0,0,1-.2.51l-.46,1.08h-.88l.35-1.21a.75.75,0,0,1-.33-.28.93.93,0,0,1-.11-.44.78.78,0,0,1,.24-.6.83.83,0,0,1,.6-.23A.85.85,0,0,1,276.29,264.54Z" style="fill:#fff"></path><path d="M280.64,261.28a2.6,2.6,0,0,1,.64,1.9,3.13,3.13,0,0,1-.34,1.52,2.35,2.35,0,0,1-1,1,3.07,3.07,0,0,1-1.45.33,3.25,3.25,0,0,1-.83-.1,2.36,2.36,0,0,1-.68-.28l.53-1.05a1.6,1.6,0,0,0,1,.27,1.27,1.27,0,0,0,.89-.31,1.31,1.31,0,0,0,.41-.89,1.76,1.76,0,0,1-1.16.38,1.93,1.93,0,0,1-.9-.21,1.54,1.54,0,0,1-.89-1.43,1.64,1.64,0,0,1,.27-.93,1.88,1.88,0,0,1,.74-.62,2.42,2.42,0,0,1,1-.21A2.39,2.39,0,0,1,280.64,261.28Zm-1.14,1.52a.63.63,0,0,0,.2-.48.59.59,0,0,0-.2-.47.73.73,0,0,0-.52-.18.72.72,0,0,0-.51.18.6.6,0,0,0-.2.48.62.62,0,0,0,.2.47.72.72,0,0,0,.51.18A.73.73,0,0,0,279.5,262.8Z" style="fill:#fff"></path><path d="M285.33,263.06a1.46,1.46,0,0,1,.52,1.18,1.72,1.72,0,0,1-.24.89,1.8,1.8,0,0,1-.76.64,2.9,2.9,0,0,1-1.25.24,4.45,4.45,0,0,1-1.09-.13,3.35,3.35,0,0,1-.92-.38l.53-1.1a2.65,2.65,0,0,0,.68.32,2.78,2.78,0,0,0,.75.11,1.08,1.08,0,0,0,.61-.15.44.44,0,0,0,.22-.4.43.43,0,0,0-.22-.39,1.61,1.61,0,0,0-.78-.14H282l.26-3h3.3v1.13h-2.09l-.06.75h.34A2.42,2.42,0,0,1,285.33,263.06Z" style="fill:#fff"></path><path d="M264.38,274.36c0,.14-5.63.26-12.57.26s-12.57-.12-12.57-.26,5.63-.26,12.57-.26S264.38,274.22,264.38,274.36Z" style="fill:#fff"></path><path d="M274.12,271.83V277h-1.47v-4h-1v-1.14Z" style="fill:#fff"></path><path d="M276.29,275.64a.81.81,0,0,1,.24.6,1.27,1.27,0,0,1,0,.34,2.57,2.57,0,0,1-.2.51l-.46,1.08h-.88l.35-1.2a.78.78,0,0,1-.33-.29.87.87,0,0,1-.11-.44.81.81,0,0,1,.24-.6.83.83,0,0,1,.6-.23A.85.85,0,0,1,276.29,275.64Z" style="fill:#fff"></path><path d="M281.34,274.79a1.38,1.38,0,0,1,.19.7,1.45,1.45,0,0,1-.28.86,1.87,1.87,0,0,1-.8.57,3.26,3.26,0,0,1-1.17.2,3.32,3.32,0,0,1-1.18-.2,1.9,1.9,0,0,1-.79-.57,1.39,1.39,0,0,1-.28-.86,1.29,1.29,0,0,1,.19-.7,1.6,1.6,0,0,1,.55-.51,1.26,1.26,0,0,1-.41-.45,1.17,1.17,0,0,1-.14-.59,1.31,1.31,0,0,1,.25-.8,1.73,1.73,0,0,1,.73-.52,2.81,2.81,0,0,1,1.08-.19,2.85,2.85,0,0,1,1.08.19,1.64,1.64,0,0,1,.72.52,1.26,1.26,0,0,1,.26.8,1.28,1.28,0,0,1-.14.59,1.36,1.36,0,0,1-.41.45A1.69,1.69,0,0,1,281.34,274.79Zm-1.5,1.12a.57.57,0,0,0,.22-.47.6.6,0,0,0-.22-.47.87.87,0,0,0-.56-.17.9.9,0,0,0-.57.17.59.59,0,0,0-.21.47.57.57,0,0,0,.21.47.85.85,0,0,0,.57.18A.82.82,0,0,0,279.84,275.91Zm-1-3a.57.57,0,0,0,0,.8.75.75,0,0,0,.9,0,.49.49,0,0,0,.17-.39.52.52,0,0,0-.17-.41.69.69,0,0,0-.45-.14A.68.68,0,0,0,278.84,272.9Z" style="fill:#fff"></path><path d="M285.55,274.16a1.48,1.48,0,0,1,.53,1.19,1.7,1.7,0,0,1-.25.88,1.75,1.75,0,0,1-.76.65,2.87,2.87,0,0,1-1.25.24,4.38,4.38,0,0,1-1.08-.14,2.86,2.86,0,0,1-.92-.38l.52-1.1a2.49,2.49,0,0,0,.68.32,2.79,2.79,0,0,0,.76.11,1.16,1.16,0,0,0,.6-.14.45.45,0,0,0,.22-.4.43.43,0,0,0-.22-.4,1.63,1.63,0,0,0-.78-.13h-1.41l.26-3h3.3V273h-2.09l-.06.75H284A2.45,2.45,0,0,1,285.55,274.16Z" style="fill:#fff"></path><rect x="661.49" y="233.95" width="69.32" height="27.54" style="fill:#fff"></rect><rect x="661.49" y="233.95" width="69.32" height="11.74" style="fill:#263238"></rect><rect x="661.49" y="245.69" width="31.86" height="15.8" style="fill:#47904C"></rect><path d="M688.25,255.91c0,.14-4.85.26-10.83.26s-10.84-.12-10.84-.26,4.85-.26,10.84-.26S688.25,255.76,688.25,255.91Z" style="fill:#263238"></path><path d="M688.25,252.23c0,.15-4.85.26-10.83.26s-10.84-.11-10.84-.26,4.85-.26,10.84-.26S688.25,252.09,688.25,252.23Z" style="fill:#263238"></path><path d="M722,255.91c0,.14-5.42.26-12.1.26s-12.11-.12-12.11-.26,5.42-.26,12.11-.26S722,255.76,722,255.91Z" style="fill:#263238"></path><path d="M722,252.23c0,.15-5.42.26-12.1.26s-12.11-.11-12.11-.26,5.42-.26,12.11-.26S722,252.09,722,252.23Z" style="fill:#263238"></path><path d="M725.57,239.82c0,.14-13.2.26-29.49.26s-29.5-.12-29.5-.26,13.2-.26,29.5-.26S725.57,239.67,725.57,239.82Z" style="fill:#fff"></path><rect x="628.57" y="328.12" width="5.15" height="7.38" style="fill:#263238"></rect><rect x="603.61" y="348.78" width="34.13" height="26.51" style="fill:#f5f5f5"></rect><rect x="557.79" y="211.83" width="86.83" height="79.46" style="fill:#47904C"></rect><path d="M597.82,323.76V433.84h45.23V323.76Zm39,50.85H604.12l0-46.49h32.68Z" style="fill:#e0e0e0"></path><rect x="603.92" y="374.42" width="11.08" height="22.22" style="fill:#455a64"></rect><polygon points="561.25 433.84 542.93 433.74 542.93 207.01 561.25 207.01 561.25 433.84" style="fill:#e0e0e0"></polygon><path d="M561.25,433.84s0-.41,0-1.17,0-1.92,0-3.41c0-3,0-7.39,0-13.07,0-11.36,0-27.82-.08-48.24,0-40.82-.06-97.48-.11-160.94l.26.26H542.93l.26-.26c-.08,102.61-.14,190.45-.17,226.73l-.09-.1,13.6.13,3.52,0,1.2,0h-4.67l-13.65,0h-.1v-.09c0-36.28-.09-124.12-.16-226.73v-.26h18.84V207c0,63.53-.08,120.27-.11,161.13,0,20.4-.06,36.83-.08,48.18,0,5.65,0,10,0,13,0,1.48,0,2.6,0,3.37S561.25,433.84,561.25,433.84Z" style="fill:#263238"></path><rect x="643.03" y="203.25" width="18.27" height="230.58" style="fill:#e0e0e0"></rect><path d="M661.3,433.84s0-.41,0-1.19,0-1.95,0-3.46c0-3.05,0-7.52,0-13.3,0-11.55-.05-28.28-.08-49,0-41.5-.07-99.1-.11-163.6l.26.26H643l.26-.26c-.07,104.6-.14,194.09-.16,230.59l-.1-.1,13.57.05,3.5,0c.79,0,1.2,0,1.2,0h-1.16l-3.48,0-13.63.05h-.1v-.09c0-36.5-.09-126-.16-230.59V203h18.79v.26c0,64.57-.08,122.25-.11,163.79,0,20.74-.06,37.45-.08,49,0,5.75,0,10.21,0,13.24,0,1.5,0,2.64,0,3.42S661.3,433.84,661.3,433.84Z" style="fill:#263238"></path><rect x="608" y="328.12" width="5.15" height="7.38" style="fill:#263238"></rect><rect x="618.1" y="328.12" width="5.15" height="7.38" style="fill:#263238"></rect><rect x="561.25" y="393.99" width="36.54" height="39.85" style="fill:#47904C"></rect><rect x="570.6" y="323.76" width="27.19" height="70.23" style="fill:#e0e0e0"></rect><rect x="606.73" y="378.01" width="5.4" height="18.63" style="fill:#263238"></rect><path d="M610.28,386.31h-1.64V380.5a.82.82,0,0,1,.82-.82h0a.82.82,0,0,1,.82.82Z" style="fill:#e0e0e0"></path><polyline points="602.39 433.84 602.39 404.57 636.67 404.57 636.67 433.21" style="fill:none"></polyline><path d="M604.58,429.55a4.63,4.63,0,0,1-4.9-4.24c-.1-3.52-.08-9.16-.06-14.13,0-2.29,0-4.45,0-6.24,0-5.64,3.59-24,6.22-37.34.95-4.79,1.76-8.93,2.25-11.68s1.18-8.51,1.92-21.68c.05-.92.07-1.17.54-1.17v.5l.5.06s0,.28,0,.67c-.74,13.21-1.46,19.14-1.94,21.79s-1.3,6.91-2.25,11.71c-2.62,13.33-6.21,31.6-6.2,37.14,0,1.79,0,3.95,0,6.24,0,5,0,10.6.06,14.11a3.69,3.69,0,0,0,3.9,3.26,4.2,4.2,0,0,0,3-1.19,3.08,3.08,0,0,0,.92-2.19l.08-29.74h1l-.08,29.73a4.1,4.1,0,0,1-1.21,2.91A5.21,5.21,0,0,1,604.58,429.55Z" style="fill:#263238"></path><rect x="574.17" y="333.57" width="20.05" height="14.95" style="fill:#455a64"></rect><rect x="576.25" y="335.27" width="15.89" height="11.57" style="fill:#263238"></rect><path d="M584.22,356.33a23.6,23.6,0,0,1-.17-2.63l.17.16c-2.17.06-5.57.1-9.39.1.12-.11-.26.26.26-.26h0V355c0,.44,0,.87,0,1.29l-.25-.25c2.63,0,4.94.06,6.62.11s2.72.1,2.77.14a18.4,18.4,0,0,1-2.59.14c-1.67,0-4.06.11-6.8.12h-.25v-.26c0-.42,0-.85,0-1.29v-1.32h0l.26-.26c3.82,0,7.22,0,9.39.1h.16v.15A21.54,21.54,0,0,1,584.22,356.33Z" style="fill:#263238"></path><rect x="607.93" y="386.31" width="3.05" height="12.15" style="fill:#47904C"></rect><rect x="614.35" y="374.42" width="11.08" height="22.22" style="fill:#455a64"></rect><rect x="617.16" y="378.01" width="5.4" height="18.63" style="fill:#263238"></rect><path d="M620.71,386.31h-1.64V380.5a.82.82,0,0,1,.82-.82h0a.82.82,0,0,1,.82.82Z" style="fill:#e0e0e0"></path><path d="M615,429.55c-2.56,0-3.48-.43-3.55-2.88-.1-3.53-.07-9.18-.05-14.16,0-2.27,0-4.43,0-6.21,0-5.64,3.59-23.95,6.22-37.32,1-4.8,1.76-9,2.25-11.71.92-5.14.78-16.76.62-23.22,0-.66,0-.67.13-.82l.36.34v0h.5s0,.19,0,.44c.16,6.51.3,18.2-.63,23.43-.49,2.76-1.31,6.92-2.26,11.73-2.62,13.32-6.21,31.58-6.2,37.11,0,1.79,0,3.95,0,6.23,0,5,0,10.61.05,14.12,0,1.71.31,1.91,2.55,1.91a4.16,4.16,0,0,0,3-1.19,3,3,0,0,0,.93-2.19l.08-29.74h1l-.08,29.73a4.1,4.1,0,0,1-1.21,2.91A5.23,5.23,0,0,1,615,429.55Z" style="fill:#263238"></path><rect x="618.36" y="386.31" width="3.05" height="12.15" style="fill:#455a64"></rect><rect x="624.78" y="374.42" width="11.08" height="22.22" style="fill:#455a64"></rect><rect x="627.59" y="378.01" width="5.4" height="18.63" style="fill:#263238"></rect><path d="M631.13,386.31H629.5V380.5a.82.82,0,0,1,.82-.82h0a.82.82,0,0,1,.81.82Z" style="fill:#e0e0e0"></path><rect x="625.91" y="352.47" width="8.44" height="8.44" style="fill:#455a64"></rect><path d="M622,354.82a106.15,106.15,0,0,1-14.85,0,106.15,106.15,0,0,1,14.85,0Z" style="fill:#263238"></path><path d="M622,356.75a106.15,106.15,0,0,1-14.85,0,106.15,106.15,0,0,1,14.85,0Z" style="fill:#263238"></path><path d="M622,358.68a106.15,106.15,0,0,1-14.85,0,106.15,106.15,0,0,1,14.85,0Z" style="fill:#263238"></path><path d="M626.42,429.55h-1v-.08a4.51,4.51,0,0,1-3.92-4.16c-.1-3.52-.08-9.16-.06-14.13,0-2.29,0-4.45,0-6.24,0-5.64,3.59-24,6.22-37.34.95-4.79,1.76-8.93,2.25-11.68.68-3.8,1-11.57,1-21.87,0-.68,0-.68.14-.83l.36.35v0l.49,0s0,.19,0,.44c0,10.37-.31,18.2-1,22-.49,2.76-1.3,6.91-2.25,11.71-2.62,13.33-6.21,31.6-6.2,37.14,0,1.79,0,3.95,0,6.24,0,5,0,10.6.06,14.11a3.6,3.6,0,0,0,3.41,3.23,4.06,4.06,0,0,0,2.49-1.16,3,3,0,0,0,.93-2.19l.08-29.74h1l-.08,29.73a4.07,4.07,0,0,1-1.22,2.91,5,5,0,0,1-2.71,1.39Z" style="fill:#263238"></path><path d="M597.82,323.34c.14,0,.26,24.49.26,54.69s-.12,54.69-.26,54.69-.26-24.49-.26-54.69S597.67,323.34,597.82,323.34Z" style="fill:#263238"></path><path d="M576.39,335.37c-.09.11-.66-.2-1.27-.69s-1-1-1-1.11.66.2,1.28.7S576.49,335.26,576.39,335.37Z" style="fill:#263238"></path><path d="M594.33,333.57c.09.11-.4.69-1.09,1.28s-1.34,1-1.43.88.39-.68,1.09-1.27S594.23,333.47,594.33,333.57Z" style="fill:#263238"></path><path d="M592.07,346.73c.09-.11.66.2,1.28.69s1,1,.94,1.11-.66-.2-1.27-.7S592,346.84,592.07,346.73Z" style="fill:#263238"></path><path d="M574.14,348.53c-.1-.11.39-.69,1.09-1.28s1.33-1,1.42-.88-.39.68-1.08,1.27S574.23,348.63,574.14,348.53Z" style="fill:#263238"></path><path d="M597.22,225.47h11a.29.29,0,0,0,.1,0,2,2,0,0,1,1.17.68,2.13,2.13,0,0,1,.47,1.45v12.31h.88v-.3c0-2.31,0-4.62,0-6.93a1.09,1.09,0,0,1,.17-.62c.57-.78,1.17-1.54,1.76-2.3a.66.66,0,1,1,1,.81c-.14.19-.28.37-.43.55a.66.66,0,0,0-.15.42c0,.8,0,1.6,0,2.4a.66.66,0,0,1-.69.71h-.39v5.81c0,.53-.25.77-.79.77h-1.21c-.16,0-.21,0-.21.21,0,.79,0,1.59,0,2.38,0,0,0,.11,0,.18h.5c.56,0,.8.24.81.8v2.31c0,.62-.23.85-.85.85H595.06c-.6,0-.74-.1-.92-.66V244.7c.18-.56.32-.66.92-.66h.42v-5.57c0-3.61,0-7.23,0-10.84a2,2,0,0,1,.81-1.76A5.11,5.11,0,0,1,597.22,225.47Z" style="fill:#fff"></path><g id="freepik--nckllstif--inject-104"><path d="M602.75,234.18h-3.84c-.54,0-.78-.24-.78-.78,0-1.5,0-3,0-4.51,0-.54.24-.78.79-.78h7.65c.55,0,.79.24.8.79v4.49c0,.56-.25.79-.81.79Z" style="fill:#47904C"></path><path d="M599.64,236.91h-.83a.66.66,0,1,1,0-1.32h1.69a.66.66,0,0,1,.67.67.66.66,0,0,1-.68.65Z" style="fill:#47904C"></path></g><path d="M610.3,243.93a108.16,108.16,0,0,1-15,0,108.16,108.16,0,0,1,15,0Z" style="fill:#47904C"></path><path d="M603.26,263.25c0,.15-5.63.26-12.57.26s-12.56-.11-12.56-.26,5.62-.26,12.56-.26S603.26,263.11,603.26,263.25Z" style="fill:#fff"></path><path d="M692,433.74c0,.15-38.54.27-86.07.27s-86.07-.12-86.07-.27,38.53-.26,86.07-.26S692,433.6,692,433.74Z" style="fill:#263238"></path><rect x="628.79" y="386.31" width="3.05" height="12.15" style="fill:#f5f5f5"></rect><rect x="521.18" y="190.47" width="160.3" height="11.41" style="fill:#e0e0e0"></rect><path d="M521.18,190.47l.8,0h2.38l9.2,0,34.07-.08,113.85-.11h.26v11.66h0v.26h-.26L521.18,202h-.09v-.09c0-3.78,0-6.64,0-8.56l0-2.14c0-.48,0-.71,0-.71s0,.25,0,.74,0,1.21,0,2.16c0,1.92,0,4.75,0,8.51l-.09-.09,160.3-.17-.27.26h0c0-3.9,0-7.78,0-11.4l.26.26-113.66-.11-34.13-.07-9.26,0-2.42,0Z" style="fill:#263238"></path><polygon points="541.22 212.15 521.18 201.88 681.48 201.88 661.44 212.15 541.22 212.15" style="fill:#e0e0e0"></polygon><path d="M541.22,212.15s.2,0,.59,0l1.74,0,6.71,0,25.06-.07,86.12-.09-.12,0,20-10.27.12.49h-20L521.18,202l.06-.25,14.83,7.67,3.84,2,1,.52.33.19-.34-.16-1-.48L536,209.56,521.12,202l-.48-.24h.54l140.27-.13h21.1l-1,.49-20,10.26,0,0h-.06l-86.17-.1-25-.07-6.7,0-1.72,0Z" style="fill:#263238"></path><path d="M613,260.73v5.18h-1.47v-4.05h-1v-1.13Z" style="fill:#fff"></path><path d="M615.17,264.54a.78.78,0,0,1,.24.6,1.37,1.37,0,0,1,0,.34,4.52,4.52,0,0,1-.2.51l-.47,1.08h-.88l.35-1.21a.68.68,0,0,1-.32-.28.83.83,0,0,1-.12-.44.78.78,0,0,1,.24-.6.85.85,0,0,1,.6-.23A.81.81,0,0,1,615.17,264.54Z" style="fill:#fff"></path><path d="M619.52,261.28a2.6,2.6,0,0,1,.65,1.9,3.13,3.13,0,0,1-.35,1.52,2.35,2.35,0,0,1-1,1,3,3,0,0,1-1.44.33,3.33,3.33,0,0,1-.84-.1,2.48,2.48,0,0,1-.68-.28l.53-1.05a1.6,1.6,0,0,0,1,.27,1.28,1.28,0,0,0,.9-.31,1.3,1.3,0,0,0,.4-.89,1.74,1.74,0,0,1-1.16.38,1.93,1.93,0,0,1-.9-.21,1.53,1.53,0,0,1-.64-.57,1.65,1.65,0,0,1,0-1.79,1.85,1.85,0,0,1,.73-.62,2.45,2.45,0,0,1,1-.21A2.37,2.37,0,0,1,619.52,261.28Zm-1.14,1.52a.59.59,0,0,0,.2-.48.61.61,0,0,0-.19-.47.76.76,0,0,0-.53-.18.72.72,0,0,0-.51.18.59.59,0,0,0-.19.48.61.61,0,0,0,.19.47.73.73,0,0,0,.52.18A.72.72,0,0,0,618.38,262.8Z" style="fill:#fff"></path><path d="M624.21,263.06a1.46,1.46,0,0,1,.53,1.18,1.73,1.73,0,0,1-.25.89,1.8,1.8,0,0,1-.76.64,2.87,2.87,0,0,1-1.25.24,4.37,4.37,0,0,1-1.08-.13,3.11,3.11,0,0,1-.92-.38l.52-1.1a2.72,2.72,0,0,0,.69.32,2.67,2.67,0,0,0,.75.11,1.07,1.07,0,0,0,.6-.15.44.44,0,0,0,.22-.4.43.43,0,0,0-.22-.39,1.61,1.61,0,0,0-.78-.14h-1.41l.26-3h3.3v1.13h-2.09l-.06.75h.35A2.39,2.39,0,0,1,624.21,263.06Z" style="fill:#fff"></path><path d="M603.26,274.36c0,.14-5.63.26-12.57.26s-12.56-.12-12.56-.26,5.62-.26,12.56-.26S603.26,274.22,603.26,274.36Z" style="fill:#fff"></path><path d="M613,271.83V277h-1.47v-4h-1v-1.14Z" style="fill:#fff"></path><path d="M615.17,275.64a.81.81,0,0,1,.24.6,1.27,1.27,0,0,1,0,.34,3.4,3.4,0,0,1-.2.51l-.47,1.08h-.88l.35-1.2a.7.7,0,0,1-.32-.29.78.78,0,0,1-.12-.44.81.81,0,0,1,.24-.6.85.85,0,0,1,.6-.23A.81.81,0,0,1,615.17,275.64Z" style="fill:#fff"></path><path d="M620.22,274.79a1.29,1.29,0,0,1,.19.7,1.39,1.39,0,0,1-.28.86,1.9,1.9,0,0,1-.79.57,3.28,3.28,0,0,1-1.18.2,3.32,3.32,0,0,1-1.18-.2,2,2,0,0,1-.79-.57,1.45,1.45,0,0,1-.28-.86,1.3,1.3,0,0,1,.2-.7,1.56,1.56,0,0,1,.54-.51,1.36,1.36,0,0,1-.41-.45,1.28,1.28,0,0,1-.14-.59,1.26,1.26,0,0,1,.26-.8,1.64,1.64,0,0,1,.72-.52,2.85,2.85,0,0,1,1.08-.19,2.81,2.81,0,0,1,1.08.19,1.73,1.73,0,0,1,.73.52,1.31,1.31,0,0,1,.25.8,1.17,1.17,0,0,1-.14.59,1.26,1.26,0,0,1-.41.45A1.6,1.6,0,0,1,620.22,274.79Zm-1.49,1.12a.57.57,0,0,0,.21-.47.59.59,0,0,0-.21-.47.9.9,0,0,0-.57-.17.87.87,0,0,0-.56.17.57.57,0,0,0-.22.47.55.55,0,0,0,.22.47.82.82,0,0,0,.56.18A.85.85,0,0,0,618.73,275.91Zm-1-3a.57.57,0,0,0,0,.8.75.75,0,0,0,.9,0,.46.46,0,0,0,.17-.39.49.49,0,0,0-.17-.41.69.69,0,0,0-.45-.14A.68.68,0,0,0,617.72,272.9Z" style="fill:#fff"></path><path d="M624.44,274.16a1.51,1.51,0,0,1,.52,1.19,1.7,1.7,0,0,1-.25.88,1.78,1.78,0,0,1-.75.65,3,3,0,0,1-1.26.24,4.45,4.45,0,0,1-1.08-.14,2.86,2.86,0,0,1-.92-.38l.52-1.1a2.42,2.42,0,0,0,.69.32,2.78,2.78,0,0,0,.75.11,1.16,1.16,0,0,0,.6-.14.46.46,0,0,0,.23-.4.44.44,0,0,0-.23-.4,1.58,1.58,0,0,0-.78-.13h-1.41l.26-3h3.3V273h-2.08l-.07.75h.35A2.5,2.5,0,0,1,624.44,274.16Z" style="fill:#fff"></path></g><g id="freepik--Car--inject-104"><rect x="392.88" y="411.18" width="209.62" height="30.76" style="fill:#47904C"></rect><g style="opacity:0.5"><rect x="392.88" y="411.18" width="209.62" height="30.76"></rect></g><circle cx="421.04" cy="441.74" r="20.21" transform="translate(-31.31 851.35) rotate(-88.54)" style="fill:#263238"></circle><path d="M400.84,441.39a.13.13,0,0,0,0,.06,20.21,20.21,0,0,0,40.42.58v0Z" style="fill:#263238"></path><path d="M406.85,441.53a14.19,14.19,0,1,0,14.4-14A14.2,14.2,0,0,0,406.85,441.53Z" style="fill:#fafafa"></path><path d="M421.25,427.55a14.19,14.19,0,0,0-14.4,14l28.38.41A14.19,14.19,0,0,0,421.25,427.55Z" style="fill:#e0e0e0"></path><path d="M412.4,441.61a8.65,8.65,0,1,0,8.77-8.52A8.64,8.64,0,0,0,412.4,441.61Z" style="fill:#263238"></path><circle cx="575.6" cy="441.74" r="20.21" transform="translate(119.05 1005.66) rotate(-88.51)" style="fill:#263238"></circle><path d="M555.4,441.39s0,0,0,.06a20.21,20.21,0,0,0,40.42.58v0Z" style="fill:#263238"></path><path d="M561.42,441.53a14.19,14.19,0,1,0,14.39-14A14.19,14.19,0,0,0,561.42,441.53Z" style="fill:#fafafa"></path><path d="M575.81,427.55a14.18,14.18,0,0,0-14.39,14l28.37.41A14.19,14.19,0,0,0,575.81,427.55Z" style="fill:#e0e0e0"></path><path d="M567,441.61a8.65,8.65,0,1,0,8.77-8.52A8.65,8.65,0,0,0,567,441.61Z" style="fill:#263238"></path><path d="M447.54,393.88s-29.77,2.2-40.8,4.67c-7.77,1.74-22.77,4.75-22.58,14.19l1.18,6.76a10.18,10.18,0,0,0-5.56,9c0,6.48-1.36,16.53,11.62,16.94,2.14.06,6.21,0,6.21,0s-2.5-27.65,22.9-28.46c25.84-.82,24.13,28.2,24.13,28.2H552.47s-4.42-28.28,23.39-28.32,23.58,28.51,23.58,28.51,10.23.88,15-7.72S618,423,618,423l-.16-5.43a3.52,3.52,0,0,0-3.38-3.42h0s1.86-13.68-1-16.05-18.48-16.66-18.48-16.66l.75-.47a1.75,1.75,0,0,0-.37-3.14l-20.42-7a4.79,4.79,0,0,0-1.29-.27c-1.64-.13-6.3-.43-14.86-.52-10.42-.11-51.81,0-51.81,0s-14.24,1.17-22.18,4.67C476.42,378.29,447.54,393.88,447.54,393.88Z" style="fill:#47904C"></path><g style="opacity:0.4"><path d="M387.33,427.77c-1.08-.22-2.74-.24-3.56.49a3.44,3.44,0,0,0-.87,2.24,9.67,9.67,0,0,0,.08,3.35,4.08,4.08,0,0,0,1.89,2.67,2.65,2.65,0,0,0,3.11-.37,4.07,4.07,0,0,0,.76-2.91,23.6,23.6,0,0,0-.18-4.12,2,2,0,0,0-.37-.83,1.11,1.11,0,0,0-.86-.52"></path></g><path d="M385.34,419.5c3.16,0,6.23-.18,9.38-.39a1.15,1.15,0,0,0,1.29-1.44c0-1.69-.07-3.62-1.35-4.72a5.15,5.15,0,0,0-2.89-1,18.64,18.64,0,0,0-7.61.77Z" style="fill:#fafafa"></path><path d="M451,444.34s0-.09,0-.27,0-.45-.05-.8c0-.7-.1-1.73-.17-3s-.16-3-.35-4.82a37.5,37.5,0,0,0-1.12-6.28,28.22,28.22,0,0,0-3-7.09,22.14,22.14,0,0,0-5.88-6.56,34.1,34.1,0,0,0-19.19-5.76,31,31,0,0,0-19.05,6,27.75,27.75,0,0,0-6.19,6.31,30.09,30.09,0,0,0-3.62,6.81,27.66,27.66,0,0,0-1.53,6.18,26.74,26.74,0,0,0-.19,4.82,23.54,23.54,0,0,0,.38,3l.14.78c0,.18,0,.27,0,.27a2,2,0,0,1-.06-.26l-.16-.78a21,21,0,0,1-.41-3,25.57,25.57,0,0,1,.15-4.83,27.42,27.42,0,0,1,1.51-6.22,29.59,29.59,0,0,1,3.62-6.86,28,28,0,0,1,6.21-6.36,31.22,31.22,0,0,1,19.16-6.05,34.34,34.34,0,0,1,19.3,5.81,22.55,22.55,0,0,1,5.91,6.62,28.67,28.67,0,0,1,3,7.14,38.56,38.56,0,0,1,1.09,6.31c.18,1.87.25,3.5.32,4.82s.1,2.35.13,3c0,.35,0,.61,0,.8A1.83,1.83,0,0,1,451,444.34Z" style="fill:#263238"></path><path d="M452.1,444.81a2.07,2.07,0,0,1,0-.23c0-.15,0-.38,0-.67,0-.59,0-1.47-.08-2.61-.06-2.29-.16-5.64-.28-9.91s-.26-9.44-.42-15.38c0-1.48-.08-3-.13-4.59a15,15,0,0,1,.11-2.4c.05-.4.11-.81.17-1.21s.17-.81.25-1.22a24.61,24.61,0,0,1,1.68-4.84,24.23,24.23,0,0,1,2.77-4.6h0l18.67-11.76,5.05-3.18a39.53,39.53,0,0,1,5.34-3A55.41,55.41,0,0,1,491,376.9c1-.35,2-.64,3-.94s2.05-.55,3.1-.76a70.45,70.45,0,0,1,12-1.52,113,113,0,0,1,11.65,0h.12l0,.1c-1.79,8-3.47,15.54-5,22.45v0h0a24.73,24.73,0,0,0-2.25,4.82,13.14,13.14,0,0,0-.76,5c.13,1.66.17,3.28.21,4.86s.07,3.1.09,4.58c.09,5.93.11,11.11.13,15.37s0,7.61,0,9.9c0,1.14,0,2,0,2.61v.67c0,.15,0,.23,0,.23a2.07,2.07,0,0,1,0-.23c0-.15,0-.38,0-.67,0-.59,0-1.47,0-2.61,0-2.29,0-5.64-.06-9.9s-.07-9.43-.17-15.36q0-2.24-.09-4.59c0-1.57-.1-3.19-.23-4.85a13.58,13.58,0,0,1,.76-5.05,24.88,24.88,0,0,1,2.27-4.86v0c1.54-6.91,3.21-14.45,5-22.45l.08.12a112.64,112.64,0,0,0-11.63,0,70,70,0,0,0-12,1.51c-1.05.21-2.07.5-3.09.76s-2,.59-3,.93a56,56,0,0,0-5.77,2.31,39.8,39.8,0,0,0-5.32,3l-5,3.18-18.69,11.75,0,0a23.84,23.84,0,0,0-2.75,4.56,24.48,24.48,0,0,0-1.68,4.8c-.85,3.24-.42,6.44-.41,9.39.14,5.94.27,11.11.38,15.38s.18,7.62.23,9.91c0,1.14.05,2,.06,2.61v.9Z" style="fill:#263238"></path><path d="M520.69,374.36l.17,0h.52l2-.05,7.44-.15,25.08-.43H556l0,0,3.51,4.3,10,12.31,1.14,1.4a8.74,8.74,0,0,1,.94,1.5,8.08,8.08,0,0,1,.75,3.29,7.89,7.89,0,0,1-.61,3.09c-.4.93-.78,1.82-1.15,2.66l-3.46,8c-.41.94-.73,1.67-1,2.17-.1.25-.19.43-.25.57l-.09.19s0-.07.07-.2l.24-.57c.21-.51.52-1.25.92-2.19.8-1.91,2-4.66,3.41-8.05.65-1.71,1.79-3.51,1.71-5.7a7.53,7.53,0,0,0-.74-3.21,8,8,0,0,0-.92-1.47l-1.15-1.4-10-12.29-3.52-4.31.08,0-25.08.36-7.44.09h-2.7Z" style="fill:#263238"></path><path d="M508,407.71l.3,0a2,2,0,0,0,1.6-1.36,2.26,2.26,0,0,0,.1-.84,2,2,0,0,0-.23-.89,2,2,0,0,0-1.74-1.06h-8.39a2,2,0,0,0-2,1.76,2.23,2.23,0,0,0,.24,1.33,2.07,2.07,0,0,0,1,.86,3,3,0,0,0,1.26.15h3.45l3.22,0,.87,0a1.09,1.09,0,0,1,.31,0l-.31,0-.87,0-3.22,0h-4.11a2.31,2.31,0,0,1-.67-.15,2.2,2.2,0,0,1-1.06-.94,2.4,2.4,0,0,1-.27-1.45,2.13,2.13,0,0,1,.69-1.35,2.18,2.18,0,0,1,1.46-.58h8.39a2.15,2.15,0,0,1,1.86,1.16,2.13,2.13,0,0,1,.24,1,2.24,2.24,0,0,1-.13.87,2,2,0,0,1-.87,1.08,2,2,0,0,1-.83.29A1,1,0,0,1,508,407.71Z" style="fill:#263238"></path><path d="M563.92,407.71l.3,0a2,2,0,0,0,1.6-1.36,2.26,2.26,0,0,0,.1-.84,2.1,2.1,0,0,0-.23-.89,2,2,0,0,0-1.74-1.06h-8.39a2,2,0,0,0-2,1.76,2.23,2.23,0,0,0,.24,1.33,2.07,2.07,0,0,0,1,.86,3,3,0,0,0,1.26.15h3.45l3.22,0,.87,0a1.09,1.09,0,0,1,.31,0l-.31,0-.87,0-3.22,0h-4.11a2.31,2.31,0,0,1-.67-.15,2.2,2.2,0,0,1-1.06-.94,2.4,2.4,0,0,1-.27-1.45,2.13,2.13,0,0,1,.69-1.35,2.18,2.18,0,0,1,1.46-.58H564a2.15,2.15,0,0,1,1.86,1.16,2.27,2.27,0,0,1,.24,1,2.44,2.44,0,0,1-.13.87,2,2,0,0,1-.87,1.08,2,2,0,0,1-.83.29A1,1,0,0,1,563.92,407.71Z" style="fill:#263238"></path><path d="M612.93,398.59H601.74a4.14,4.14,0,0,0-3.65,2.2h0a4.15,4.15,0,0,0-.12,3.59l4.38,10,11.2-.11S615.93,401.6,612.93,398.59Z" style="fill:#fafafa"></path><path d="M457.61,397.18l57.71-1.06,37.55-.69,12.38-7.15a1.92,1.92,0,0,0,.57-2.83l-7.7-10.13a4.3,4.3,0,0,0-3.38-1.69l-42-.34s-15.82-.92-28.28,6A268,268,0,0,0,457.61,397.18Z" style="fill:#263238"></path><path d="M484.06,374.33s2.89,1.32,1,2.54S454,396.53,454,396.53l-6.72-3C459.13,386.85,471.16,380.41,484.06,374.33Z" style="fill:#455a64"></path><path d="M454.89,397l-.18,0-.53.12-2.05.42c-1.78.36-4.37.86-7.57,1.41-6.41,1.1-15.31,2.39-25.2,3.24-2.47.22-4.89.39-7.22.55s-4.59.29-6.73.49a57.5,57.5,0,0,0-11.22,1.92,31.88,31.88,0,0,0-7.08,2.95c-.8.43-1.37.84-1.78,1.09l-.46.29-.16.1.15-.11.45-.31c.4-.26,1-.69,1.76-1.13a31.34,31.34,0,0,1,7.08-3,56.84,56.84,0,0,1,11.25-2c2.14-.2,4.39-.35,6.73-.51s4.74-.33,7.21-.55c9.89-.85,18.78-2.11,25.2-3.18,3.2-.53,5.79-1,7.58-1.34l2.05-.39.54-.1Z" style="fill:#263238"></path><path d="M617.4,422.83c0,.05-3.85.1-8.59.1s-8.59-.05-8.59-.1,3.84-.1,8.59-.1S617.4,422.77,617.4,422.83Z" style="fill:#263238"></path><path d="M547,432.64c0,.06-21.71.1-48.49.1s-48.49,0-48.49-.1,21.71-.1,48.49-.1S547,432.59,547,432.64Z" style="fill:#263238"></path><path d="M395,423.15c0,.06-3.07.1-6.86.1s-6.85,0-6.85-.1,3.07-.1,6.85-.1S395,423.1,395,423.15Z" style="fill:#263238"></path><path d="M594.63,381s-2.57,2.89-1.56,5,11.48,9.52,11.48,9.52l7.6,1.43Z" style="fill:#455a64"></path><polygon points="522.4 375.83 520.69 394.28 551.26 393.41 563.58 386.25 555.6 375.83 522.4 375.83" style="fill:#455a64"></polygon><path d="M464.85,395.23s18.44-13.32,25.72-16a46.48,46.48,0,0,1,17.28-3.39c6.31-.18,10.15,0,10.15,0l-4.87,18.76Z" style="fill:#455a64"></path><path d="M462.15,395.29h0a3.23,3.23,0,0,1,1.65-2.82l4.24-2.38a8.07,8.07,0,0,1,3.95-1h0a7.92,7.92,0,0,1,2.52.41,4.58,4.58,0,0,1,3.09,4.21h0a4.67,4.67,0,0,1-4.67,4.85h-7.55A3.23,3.23,0,0,1,462.15,395.29Z" style="fill:#47904C"></path><path d="M462.15,395.29a3.37,3.37,0,0,1,.05.41,3.42,3.42,0,0,0,.37,1.1,3.33,3.33,0,0,0,1.3,1.28,3.16,3.16,0,0,0,1.09.34,11.14,11.14,0,0,0,1.31,0l6.46,0a4.9,4.9,0,0,0,1.8-.3,4.61,4.61,0,0,0,1.6-1,4.53,4.53,0,0,0,1.07-1.64,4.66,4.66,0,0,0,.29-2,4.6,4.6,0,0,0-1.91-3.38,5,5,0,0,0-1.75-.74,8.88,8.88,0,0,0-1.83-.22,8.11,8.11,0,0,0-3.32.71c-.49.22-.93.5-1.37.74l-1.27.7-2.17,1.2a3.29,3.29,0,0,0-1.29,1.28,3.22,3.22,0,0,0-.38,1.11c0,.26,0,.41-.05.41a1.92,1.92,0,0,1,0-.42,3.18,3.18,0,0,1,.35-1.13,3.27,3.27,0,0,1,1.31-1.34l2.16-1.23,1.25-.72c.44-.24.88-.52,1.38-.74A8.3,8.3,0,0,1,472,389a8.08,8.08,0,0,1,1.87.22,5.08,5.08,0,0,1,1.82.76,4.75,4.75,0,0,1,2,3.53,4.87,4.87,0,0,1-.29,2.08,5,5,0,0,1-1.13,1.71,4.81,4.81,0,0,1-1.67,1.05,5,5,0,0,1-1.86.3l-6.46,0c-.47,0-.9,0-1.32,0a3.22,3.22,0,0,1-2.44-1.71,3.28,3.28,0,0,1-.35-1.14A3.16,3.16,0,0,1,462.15,395.29Z" style="fill:#263238"></path><path d="M604.25,444.51s0-.09,0-.26,0-.44.06-.77.06-.75.08-1.25,0-1.06.06-1.7,0-1.36,0-2.14-.06-1.62-.16-2.53a33.32,33.32,0,0,0-1.1-6.08,26.43,26.43,0,0,0-1.2-3.38,22.74,22.74,0,0,0-1.82-3.43,23.42,23.42,0,0,0-5.91-6.17,27.8,27.8,0,0,0-8.47-4.17,35.4,35.4,0,0,0-10.07-1.35,33.2,33.2,0,0,0-10.05,1.47,28.63,28.63,0,0,0-4.48,1.84,26.21,26.21,0,0,0-3.88,2.54,32.36,32.36,0,0,0-6,6.14,24.6,24.6,0,0,0-2,3.34,32.56,32.56,0,0,0-1.38,3.32,39.5,39.5,0,0,0-2.18,10.6c-.06,1.28,0,2.28,0,3,0,.33,0,.59,0,.77s0,.26,0,.26l0-.26c0-.18,0-.44-.06-.77a27.36,27.36,0,0,1,0-3,39.05,39.05,0,0,1,2.13-10.64,31.42,31.42,0,0,1,1.37-3.34,24.55,24.55,0,0,1,2-3.37,32.65,32.65,0,0,1,6-6.18,25.74,25.74,0,0,1,3.9-2.56,28.13,28.13,0,0,1,4.51-1.87,33.33,33.33,0,0,1,10.11-1.47,35.44,35.44,0,0,1,10.12,1.35,28,28,0,0,1,8.53,4.22,26.33,26.33,0,0,1,3.34,2.93,20.34,20.34,0,0,1,2.59,3.29,22.21,22.21,0,0,1,1.83,3.46,27.85,27.85,0,0,1,1.2,3.41,33.12,33.12,0,0,1,1.07,6.1c.1.91.1,1.76.14,2.54s0,1.5,0,2.14,0,1.21-.07,1.71-.08.91-.1,1.24l-.08.77A1.83,1.83,0,0,1,604.25,444.51Z" style="fill:#263238"></path><path d="M512.32,397.18H512l-1,0-3.62.07c-3.06,0-7.29.17-12,.29s-8.89.22-12,.24c-1.53,0-2.76,0-3.62,0l-1,0h0l1,0,3.62-.07c3.06-.05,7.29-.17,12-.29s8.89-.22,12-.24c1.53,0,2.77,0,3.62,0l1,0h.34Z" style="fill:#fff"></path><path d="M507.31,402.86a54.83,54.83,0,0,1-6.62,0,54.83,54.83,0,0,1,6.62,0Z" style="fill:#fff"></path><path d="M508.53,382.64c0,.05-4.09,1.76-9.18,3.82s-9.23,3.69-9.25,3.64,4.09-1.76,9.18-3.82S508.51,382.59,508.53,382.64Z" style="fill:#fff"></path><path d="M500.2,383.93c0,.05-3.89,1.78-8.74,3.85s-8.79,3.72-8.81,3.67,3.89-1.77,8.73-3.85S500.18,383.88,500.2,383.93Z" style="fill:#fff"></path><path d="M553,381.93c0,.05-4.09,1.76-9.17,3.82s-9.24,3.69-9.26,3.64,4.09-1.76,9.18-3.82S553,381.88,553,381.93Z" style="fill:#fff"></path><path d="M544.68,383.22s-3.89,1.77-8.74,3.85-8.8,3.71-8.82,3.66,3.89-1.77,8.74-3.84S544.66,383.17,544.68,383.22Z" style="fill:#fff"></path><path d="M553.81,397.18c0,.05-8.18.14-18.25.2s-18.26.07-18.26,0,8.17-.14,18.25-.2S553.81,397.12,553.81,397.18Z" style="fill:#fff"></path><path d="M562.86,402.54c0,.06-2.3.12-5.12.15s-5.12,0-5.12-.05,2.29-.12,5.12-.15S562.85,402.49,562.86,402.54Z" style="fill:#fff"></path><path d="M406.39,399.75l-.23,0-.64.09c-.28,0-.62.07-1,.14s-.84.12-1.33.21c-1,.18-2.15.43-3.43.78a40.55,40.55,0,0,0-4.09,1.35c-1.42.56-2.74,1.18-3.91,1.78s-2.2,1.22-3,1.77c-.43.26-.8.53-1.13.75l-.84.58-.52.38-.19.12s.05-.06.16-.16l.51-.4c.22-.17.49-.38.82-.61s.69-.51,1.11-.78c.83-.56,1.86-1.18,3-1.81a41.58,41.58,0,0,1,3.93-1.81c1.43-.55,2.83-1,4.11-1.34s2.46-.58,3.45-.73c.5-.09,1-.14,1.35-.19s.73-.09,1-.11l.65-.05Z" style="fill:#fff"></path><path d="M473.85,390.84a3.89,3.89,0,0,0-.36-.35,2.43,2.43,0,0,0-1.25-.51,5.47,5.47,0,0,0-2,.22,15.23,15.23,0,0,0-2.38.81,15.82,15.82,0,0,0-3.87,2.4c-.9.76-1.38,1.32-1.4,1.29a2.26,2.26,0,0,1,.32-.4,10.08,10.08,0,0,1,1-1,14.13,14.13,0,0,1,3.88-2.48,14.54,14.54,0,0,1,2.41-.81,5.51,5.51,0,0,1,2.08-.18,2.51,2.51,0,0,1,1.28.59,1.78,1.78,0,0,1,.25.29Q473.86,390.83,473.85,390.84Z" style="fill:#fff"></path><path d="M595.49,380.86a5.91,5.91,0,0,1-1.61.16,9.73,9.73,0,0,1-1.89-.23,17.74,17.74,0,0,1-2.4-.74c-.87-.33-1.8-.75-2.81-1.18l-1.57-.63c-.54-.22-1.11-.4-1.68-.61a66.12,66.12,0,0,0-7.7-2.1,87.42,87.42,0,0,0-14.39-1.79c-.93-.05-1.77-.05-2.51-.07H557l-1.2,0h-.31l.31,0,1.2-.06,1.89,0c.74,0,1.58,0,2.51,0a84,84,0,0,1,14.43,1.74,64.47,64.47,0,0,1,7.72,2.12c.58.21,1.15.4,1.69.62l1.57.64c1,.44,1.93.86,2.79,1.2a16.12,16.12,0,0,0,2.38.76,10.8,10.8,0,0,0,1.86.27,7.64,7.64,0,0,0,1.19-.05l.31,0Z" style="fill:#263238"></path></g></svg>